<svg xmlns="http://www.w3.org/2000/svg" xmlns:xlink="http://www.w3.org/1999/xlink" viewBox="0 0 612.38 617.63"><defs><style>.cls-1,.cls-2{fill:none;}.cls-2{stroke:#c0bebe;stroke-miterlimit:10;stroke-width:1.5px;}.cls-3{clip-path:url(#clip-path);}.cls-4{fill:#fff;}.cls-5{fill:#03a9f4;}</style><clipPath id="clip-path" transform="translate(-285.19 -89.82)"><rect class="cls-1" x="65.82" width="1200" height="800"/></clipPath></defs><title>Asset 2</title><g id="Layer_2" data-name="Layer 2"><g id="_1200X800" data-name="1200X800"><path class="cls-2" d="M0,495.77" transform="translate(-285.19 -89.82)"/><g class="cls-3"><path class="cls-4" d="M886.27,439a5.47,5.47,0,0,0-.68.05L860.11,278.17a11.26,11.26,0,1,0-11-19.21L736,145.89a11.1,11.1,0,0,0,2.05-6.42,11.28,11.28,0,0,0-22.16-3L554.61,110.95a11.28,11.28,0,0,0-22.55.61,11,11,0,0,0,1.31,5.18L391.3,189.12a11.25,11.25,0,1,0-14.55,16.94l-71.53,140.4a11.07,11.07,0,0,0-4.31-.88,11.29,11.29,0,1,0,0,22.58,5.51,5.51,0,0,0,.72-.06L326,521.89a11.26,11.26,0,0,0,2.08,22.34,11.07,11.07,0,0,0,5-1.24L449.61,659.48a11.28,11.28,0,1,0,19.8,10.69l161.13,25.52a4.05,4.05,0,0,0,0,.46,11.29,11.29,0,1,0,22.58,0,11.1,11.1,0,0,0-1.2-5l144.44-73.6a11.25,11.25,0,1,0,14.3-17.09l71.26-139.84a11,11,0,0,0,4.38.92,11.29,11.29,0,1,0,0-22.58ZM793.53,611.92l-41.34,6.37a10,10,0,0,0-1.67-3.35L793.78,575a9.74,9.74,0,0,0,6.45,2.45L802.46,599a11.19,11.19,0,0,0-9.13,11A10.22,10.22,0,0,0,793.53,611.92ZM596,677.82a10.17,10.17,0,0,0,1.31-1.74l22.48,10.71ZM309.36,364.36l21.3,15.71v96a10.21,10.21,0,0,0,.3,20l-2.55,25.67-.34,0H328L303.64,367.84A11.35,11.35,0,0,0,309.36,364.36ZM394.23,195.7,419,191.24a10.2,10.2,0,0,0,1.68,3.33l-35.78,33a9.69,9.69,0,0,0-6.45-2.46,9.75,9.75,0,0,0-1.76,19.34l-1.24,15.72-35.87,49.38a10.2,10.2,0,0,0-13,15.57L307.4,347.68l-.41-.27L378.52,207a11,11,0,0,0,4.47,1,11.3,11.3,0,0,0,11.29-11.29A9.22,9.22,0,0,0,394.23,195.7Zm-37,196.71a9.7,9.7,0,0,0-3.22,2.35l-21.29-15.7V328.11a10.3,10.3,0,0,0,3.46-.17Zm81.64-206,10.25-3.32a9.74,9.74,0,0,0,5.88,5.77l.45,1.26L439,188.46A10.71,10.71,0,0,0,438.82,186.38ZM495.06,194l-27.31-12.53a9.08,9.08,0,0,0,.2-1.82l51.93,11.84a9.77,9.77,0,0,0-2.47,4.73Zm287.49,22.86L770.31,225l-23-31.61a10.28,10.28,0,0,0,1.68-2.64l33.45,22.07a5.08,5.08,0,0,0,.06,4.08ZM468.64,542.31l-55.91.49A9.73,9.73,0,0,0,403,534a8.82,8.82,0,0,0-1.13.08l-3.58-70.21h.15a7.46,7.46,0,0,0,4.42-1.45l67.18,72.69a7.57,7.57,0,0,0-1.79,4.91A7.68,7.68,0,0,0,468.64,542.31ZM620.93,158.06l15.33-2.95,67.15,21.81-24,17a7.6,7.6,0,0,0-4.89-1.79,7.34,7.34,0,0,0-1.29.11,9.7,9.7,0,0,0-11.41-3.16l-41.67-27.24a7.49,7.49,0,0,0,.8-3.34A4.15,4.15,0,0,0,620.93,158.06ZM815.49,267.68l-11.29,3.94-7.13-9.83,16.62-.79a8.71,8.71,0,0,0-.07,1.1A9.37,9.37,0,0,0,815.49,267.68Zm12.77,232.75-122,44.8a7.67,7.67,0,0,0-5.46-4l4.25-84.93a7.6,7.6,0,0,0,6.16-4l117,44.64a7.07,7.07,0,0,0-.24,1.8A6.94,6.94,0,0,0,828.26,500.43Zm-264.65-268-71.38,35.74a7.55,7.55,0,0,0-6.32-3.4,7,7,0,0,0-1.64.2l-26-72.55L494.88,196l67.86,31.14a7.08,7.08,0,0,0-.15,1.43A7.62,7.62,0,0,0,563.61,232.4Zm-62.92-35.81,16.49,1.64A9.75,9.75,0,0,0,521,205.9Zm35.54-1.37,33.5,7.64a3.62,3.62,0,0,0,0,.41,6.71,6.71,0,0,0,5,6.46l-2.71,11.42a7,7,0,0,0-1.72-.23,7.57,7.57,0,0,0-6.9,4.4L525,207.76a9.77,9.77,0,0,0,11.69-9.57A9.51,9.51,0,0,0,536.22,195.22ZM828.93,323.91l-88.14-25.36a7.72,7.72,0,0,0,.1-1.19,7,7,0,0,0-.19-1.58L766,287a9.67,9.67,0,0,0,13.61-4.75l23.79-8.29,28.78,39.62a7,7,0,0,0-.61.52h0A10.24,10.24,0,0,0,828.93,323.91ZM413,410.19a4.76,4.76,0,0,0,1.79,1.91l-14.48,36.71a7,7,0,0,0-1.88-.26,6.91,6.91,0,0,0-.86.06l-10-41.17Zm3.42-108.81,84,62.28a7.6,7.6,0,0,0-1,3.74,7.39,7.39,0,0,0,.37,2.3l-78.42,36a4.8,4.8,0,0,0-3.61-2.38l-5.53-99.69A7.6,7.6,0,0,0,416.47,301.38ZM576.55,210a6.72,6.72,0,0,0,6.4-5.35l59,1c0,.19,0,.38.08.57l-64.45,20.49a7.63,7.63,0,0,0-3.88-4.89Zm-73.1,225.93-46,20.13a7.6,7.6,0,0,0-6.54-3.73,7.39,7.39,0,0,0-3.36.8l-27.23-41.4a4.74,4.74,0,0,0,.88-1l82.23,22a6.77,6.77,0,0,0,0,3.23Zm-81.4-28.42,78.63-36.08a7.62,7.62,0,0,0,5.94,3.61l2.93,51.71v.08a7.65,7.65,0,0,0-5.49,4.06L422,409a4.33,4.33,0,0,0,.11-.94A4.77,4.77,0,0,0,422.06,407.49Zm282-141.23L571.44,306.44a7.77,7.77,0,0,0-2-2.47l76-92.68a7.71,7.71,0,0,0,8.86-.53l51.46,49.47a7.57,7.57,0,0,0-1.71,6ZM513.93,370.91l44.62,16.4L622.4,410.8a7.64,7.64,0,0,0-.43,2L518,431.46a7.63,7.63,0,0,0-6.5-4.76l-2.92-51.81A7.66,7.66,0,0,0,513.93,370.91Zm150.53-10.35-31.87,45.84a7.42,7.42,0,0,0-5.83-.09l-58.1-90a7.7,7.7,0,0,0,2.27-2.21l90.57,38.4.71.3a7.26,7.26,0,0,0-.31,2.07A7.58,7.58,0,0,0,664.45,360.56Zm-97.53-43.42,58.16,90.09a7.67,7.67,0,0,0-1.81,1.88l-108.71-40a7.36,7.36,0,0,0,.22-1.72,7.6,7.6,0,0,0-1.67-4.74l46.22-47.3A7.47,7.47,0,0,0,566.93,317.14Zm131.21,127.4-13.75-6.65L637,415a7,7,0,0,0,.19-1.57,7.64,7.64,0,0,0-3-6.05L666,361.65a7.43,7.43,0,0,0,4.72.8l29.75,79.79A7.55,7.55,0,0,0,698.13,444.55ZM567.8,303a7.49,7.49,0,0,0-2.77-.72l6.2-66.11a7.65,7.65,0,0,0,6.65-7.53L642.63,208a7.4,7.4,0,0,0,1.39,2Zm58.47,117.32a7.45,7.45,0,0,0,3.29.77,7.61,7.61,0,0,0,6.85-4.26l60.87,29.45a7.48,7.48,0,0,0,.19,5.38l-63,36-63.81,36.5a7.61,7.61,0,0,0-1.58-1.56ZM704.51,441a7.14,7.14,0,0,0-1.75.23l-29.69-79.61a7.65,7.65,0,0,0,3.61-4.15l97.66,20.64a4.22,4.22,0,0,0,0,.5,7.55,7.55,0,0,0,1.16,4l-66.32,60A7.61,7.61,0,0,0,704.51,441Zm-32.61-93.41a7.55,7.55,0,0,0-9,3.44l-91.14-38.65a7.64,7.64,0,0,0,.44-2.55,7,7,0,0,0-.21-1.64l132.6-40.16a7.59,7.59,0,0,0,3.12,3.59Zm-179.6-71.13L557.24,308a7.14,7.14,0,0,0-.27,1.91,7.61,7.61,0,0,0,1.14,4l-46.36,47.45a7.6,7.6,0,0,0-4.6-1.58,5.65,5.65,0,0,0-.72,0l-17.94-80.26A7.5,7.5,0,0,0,492.31,276.51Zm-90.17,173,14.48-36.76a4.34,4.34,0,0,0,2-.14l26,39.52,1.33,2a7.55,7.55,0,0,0-2.52,4.31l-37.37-2.67A7.67,7.67,0,0,0,402.13,449.51Zm116.41-15.2a7.35,7.35,0,0,0-.07-1l103.6-18.56a7.52,7.52,0,0,0,2.6,4.51l-57.2,102.42a7.37,7.37,0,0,0-5.75,0l-46-81.43A7.66,7.66,0,0,0,518.54,434.31Zm256.22-58.14-97.63-20.64a5.41,5.41,0,0,0,0-.63,7.45,7.45,0,0,0-1.4-4.35l52.48-47.39a7.58,7.58,0,0,0,8.06,1.18l40.93,68.31A7.68,7.68,0,0,0,774.76,376.17Zm-205.46-140-6.2,66.25a7.61,7.61,0,0,0-5.17,3.79l-64.78-31.38a7.54,7.54,0,0,0,0-5l71.69-35.89A7.55,7.55,0,0,0,569.31,236.15ZM370,405.52l15.69,1.7,10.13,41.86a7.9,7.9,0,0,0-.85.4l-28.78-39.82A9.76,9.76,0,0,0,370,405.52ZM725.6,297.36a7.53,7.53,0,0,0,1.4,4.36l-52.48,47.39a7.47,7.47,0,0,0-.9-.65l35.87-76a7.43,7.43,0,0,0,5.92-.65l12.91,19.77A7.57,7.57,0,0,0,725.6,297.36Zm-18.38-38.43-51.57-49.56a7.49,7.49,0,0,0,1.54-4.55,6.52,6.52,0,0,0-.07-.92l.39-.1a9.75,9.75,0,0,0,13.2,2.62,7.51,7.51,0,0,0,7.27.19l29.49,52.14Zm-51.5-60.75a9.31,9.31,0,0,0,.47,2.9,7.6,7.6,0,0,0-10.56-2.82l-26.89-34.35c.14-.14.28-.29.4-.43L660,190.18A9.78,9.78,0,0,0,655.72,198.19Zm-38.47-33.08,26.89,34.35a7.63,7.63,0,0,0-2.12,4.29l-58.94-1a6.59,6.59,0,0,0-1.32-3.43l27.55-34.24A7.69,7.69,0,0,0,617.26,165.11ZM377.74,337.39a7.58,7.58,0,0,0-1.78-4.88l30.33-30.37a7.55,7.55,0,0,0,4.15,1.6L416,403.45a4.83,4.83,0,0,0-.86.35l-40.24-60.44A7.66,7.66,0,0,0,377.74,337.39ZM412.53,408s0,.05,0,.08l-25.38-2.75-14.69-60.73a7.3,7.3,0,0,0,.76-.3L413.62,405A4.73,4.73,0,0,0,412.53,408Zm-41.92-4.46a9.25,9.25,0,0,0,.3-2.25,9.77,9.77,0,0,0-7.36-9.46L370.36,345l.24,0,14.54,60.15Zm35.32,54.11,37.36,2.67a7.66,7.66,0,0,0,7.63,7.24,7.33,7.33,0,0,0,1.36-.14L472.76,533a7.78,7.78,0,0,0-1.27.75l-67.18-72.68A7.57,7.57,0,0,0,405.94,457.68Zm52.64,2.26a7.53,7.53,0,0,0-.33-2.16l45.81-20.07a7.6,7.6,0,0,0,3.39,3.42L477.38,532.5a6.94,6.94,0,0,0-1.46-.16,7.17,7.17,0,0,0-1.35.14l-20.47-65.58A7.59,7.59,0,0,0,458.58,459.94Zm50.67-18.2a7.05,7.05,0,0,0,1.65.21,7.37,7.37,0,0,0,3.17-.73l46,81.37a7.61,7.61,0,0,0-3.08,6.13h0l-73.65,9.35a7.59,7.59,0,0,0-4.12-5Zm63,87.15c0-.06,0-.11,0-.17a7.5,7.5,0,0,0-.61-2.93l126.76-72.53a7.57,7.57,0,0,0,4.78,2.91L699,541.12a7.61,7.61,0,0,0-6.79,5.57ZM780.24,280a8.83,8.83,0,0,0,.15-1.58,9.77,9.77,0,1,0-19.53,0,9.64,9.64,0,0,0,3.23,7.21l-24,8.36a7.62,7.62,0,0,0-6.85-4.25,7.48,7.48,0,0,0-3.33.8l-13-19.89a7.63,7.63,0,0,0,2.38-5.17l75.37-3.56,7.57,10.4Zm-199.82-82a6.65,6.65,0,0,0-4-1.36,6.72,6.72,0,0,0-6.29,4.44l-31-7.08,68.62-30.28.17.19ZM485.9,280a5.89,5.89,0,0,0,.74-.05l17.93,80.26a7.6,7.6,0,0,0-2.93,1.91l-84-62.28a7.57,7.57,0,0,0,1-3.75,7,7,0,0,0-.15-1.38L479,275.55A7.65,7.65,0,0,0,485.9,280ZM602.09,596.12a7.64,7.64,0,0,0-2.54.44l-30.71-61.48a7.65,7.65,0,0,0,3.13-4.28l119.92,17.78c0,.06,0,.12,0,.18a7.43,7.43,0,0,0,.59,2.89l-84.25,47.59A7.61,7.61,0,0,0,602.09,596.12Zm176.8-224.43L738,303.38a7.54,7.54,0,0,0,2.29-3l89.6,25.78a9.49,9.49,0,0,0,4.71,4.4,7.73,7.73,0,0,0,1,2.2l-48.34,40.33A7.56,7.56,0,0,0,782,371,7.47,7.47,0,0,0,778.89,371.69ZM719.1,263.57a7.41,7.41,0,0,0-.68-1.94l51.34-34,23.56,32.44ZM620.57,156.19a7.6,7.6,0,0,0-13.85-1.44L592,143.91a10.24,10.24,0,0,0,1.16-2.8l39.35,12.78ZM478.41,273.74l-60.52,19.19a7.58,7.58,0,0,0-6.93-4.46,7.46,7.46,0,0,0-3,.66L385,250.43l8.81-12.13,84.69,32.26a7.13,7.13,0,0,0-.25,1.82A7,7,0,0,0,478.41,273.74Zm-74.28,19-.36.86a7.45,7.45,0,0,0-.46,2.49,7.63,7.63,0,0,0,1.63,4.68l-30.38,30.43A7.58,7.58,0,0,0,372,330l5.42-69.15,6.36-8.76,22.48,38A7.73,7.73,0,0,0,404.13,292.77Zm-34.1,37a7.66,7.66,0,0,0-4.2,1.31l-.71.57a7.38,7.38,0,0,0-1.24,1.37l-20.54-11.09a10.23,10.23,0,0,0-2.16-11.15l34-46.79ZM340.49,479.07l51.24-19.32a7.64,7.64,0,0,0,4.71,3.8l3.77,70.87a9.71,9.71,0,0,0-1.72,17.9l-4.18,15.1a9.13,9.13,0,0,0-2-.24,7.72,7.72,0,0,0-1.17.1l-52.76-72.62a9.78,9.78,0,0,0,1.88-1.43A10.25,10.25,0,0,0,340.49,479.07ZM564,536.34a7,7,0,0,0,3.13-.39l30.71,61.48a7.57,7.57,0,0,0-2.22,10.41l-52,42.91a7.67,7.67,0,0,0-2.78-1.67ZM707.13,549.2a4,4,0,0,0,0-.46,7.05,7.05,0,0,0-.22-1.71L827,502.9l-44,60.55-32.91-6.17h0Zm74.68,16-34.22,47.11a10.16,10.16,0,0,0-5.19-1.42,10.28,10.28,0,0,0-4.25.92l-33-57.9a7.58,7.58,0,0,0,1.58-2.79Zm47.13-70-117-44.64a7.14,7.14,0,0,0,.25-1.81,7.51,7.51,0,0,0-1.41-4.36L777,384.45a7.57,7.57,0,0,0,7.21,1.51l43,96.13,2.47,5.53a10.11,10.11,0,0,0,1.71,3.83l.35.77A7.64,7.64,0,0,0,828.94,495.14Zm4.87-182.76-28.44-39.15,11.51-4a9.36,9.36,0,0,0,6.17,2.33,9.05,9.05,0,0,0,1.63-.16l11.59,40A10.4,10.4,0,0,0,833.81,312.38ZM714.13,257.89a7.66,7.66,0,0,0-5,0l-29.6-52.36a7.55,7.55,0,0,0,1.14-10.16l24.94-17.72,23.91,7.77a10.23,10.23,0,0,0,2.9,8.43,9.85,9.85,0,0,0,3,2.07ZM438.85,190.46l17.31,1.72,26.32,73.38a7.64,7.64,0,0,0-3.28,3.22L395,236.71l28.65-39.44a10.27,10.27,0,0,0,12.43-1.58A10,10,0,0,0,438.85,190.46ZM377.75,257l1-12.43.61-.07,3.36,5.68Zm3.57-12.86a9.67,9.67,0,0,0,6.8-8l3.77,1.44-8,11Zm-38.92,79.52,20.54,11.09c-.06.17-.12.34-.17.52l-.2.88,0,.12a7.88,7.88,0,0,0-.1,1.08,7.47,7.47,0,0,0,.58,2.89l.42.82a7.6,7.6,0,0,0,4.91,3.72l-6.8,46.75a7.24,7.24,0,0,0-2.45.22l-21-64.47a9.91,9.91,0,0,0,3.12-2.12A9.16,9.16,0,0,0,342.41,323.69Zm16.65,87.13a8.88,8.88,0,0,0,2.1.27,9.69,9.69,0,0,0,3.14-.55l29,40.1a7.79,7.79,0,0,0-1.72,2.33l-.32.86a7.4,7.4,0,0,0-.41,2.36,7.06,7.06,0,0,0,.24,1.78L338.8,477.67a10.39,10.39,0,0,0-1.67-1ZM464,628.22l44.54,17.41-47.17-15.32A7.64,7.64,0,0,0,464,628.22Zm1.72-4.8a7.7,7.7,0,0,0-4.55-7l14.16-68.85a5,5,0,0,0,.59,0,7.46,7.46,0,0,0,2.74-.52l55.3,103a7.52,7.52,0,0,0-2.28,2.59L465,626.57A7.49,7.49,0,0,0,465.72,623.42ZM483.56,540h0l73.66-9.35a7.69,7.69,0,0,0,4.94,5.32L539,648.68a6.83,6.83,0,0,0-3.34.49l-55.3-103A7.59,7.59,0,0,0,483.56,540ZM761.15,196.33l-11.5-7.6c.07-.31.12-.62.16-.93Zm-43.81,63.73a7.58,7.58,0,0,0-1.51-1.31l21.45-62.24a10.22,10.22,0,0,0,8.58-1.79l22.78,31.36ZM730,183.45,707.7,176.2l10.52-7.47a4.81,4.81,0,0,0,4.78.13l9.24,10.78A9.88,9.88,0,0,0,730,183.45ZM679.8,155.71a9.7,9.7,0,0,0,8.37-4.83L716,163.63a4.38,4.38,0,0,0-.12,1,4.76,4.76,0,0,0,.88,2.76l-11.35,8.07-65.1-21.15,30.05-5.79A9.82,9.82,0,0,0,679.8,155.71ZM457.5,190.29l-.33-.93a9.45,9.45,0,0,0,1,.06,9.75,9.75,0,0,0,9-6.1l22.06,10.12ZM393,236l-4.86-1.85a9.66,9.66,0,0,0-1.91-5.09l35.67-32.84ZM578.37,671.2l-14.53-5.47,14.52,4.72C578.36,670.69,578.36,670.94,578.37,671.2Zm18.48-61.89A7.6,7.6,0,0,0,609.37,606L732.2,621.65a10.67,10.67,0,0,0,.17,1.4L669,643.64l-123.15,11a7.37,7.37,0,0,0-1-2.46Zm12.85-5.17a3.19,3.19,0,0,0,0-.38,7.45,7.45,0,0,0-.59-2.89l84.25-47.59a7.62,7.62,0,0,0,6.13,3.09,7.47,7.47,0,0,0,4.2-1.3l32.8,57.59a9.45,9.45,0,0,0-1.39,1.14,10.1,10.1,0,0,0-2.87,6Zm182.74-30.63-43.17,39.85L784,565.57l6.54,1.22a6.93,6.93,0,0,0-.07.9A9.6,9.6,0,0,0,792.44,573.51Zm37.3-90.38-43.83-98a7.58,7.58,0,0,0,2.69-2.77L815,393.15a9.68,9.68,0,0,0,15.8,6.44l7.84,3.19v72.57a10.06,10.06,0,0,0-8.93,7.79Zm4.71-91.08a9.76,9.76,0,0,0-19.47-1l-25.67-10.45a7.07,7.07,0,0,0,.29-2,7.5,7.5,0,0,0-1.23-4.11l48.34-40.33a7.69,7.69,0,0,0,2,1.33v65.19l-6.38-2.6A9.69,9.69,0,0,0,834.45,392.05Zm-20.31-133-18.42.87-24.29-33.44,12.16-8.05a5.28,5.28,0,0,0,6.27,1.09l26.77,35.68A9.38,9.38,0,0,0,814.15,259.08ZM401.09,581a9.65,9.65,0,0,0-4.87-13l4.14-15a9.24,9.24,0,0,0,2.68.41,9.71,9.71,0,0,0,9.71-9l56.75-.41a7.57,7.57,0,0,0,4,3.09l-14.13,68.7a7,7,0,0,0-1.27-.12,7.68,7.68,0,0,0-7.32,5.56l-.22,1a6.9,6.9,0,0,0-.11,1.08,7.78,7.78,0,0,0,.3,2l.29.92a7.41,7.41,0,0,0,.33.69L440,623.37a10.2,10.2,0,0,0-15.5-10.11Zm439.6-177.44,6.8,2.77a9.51,9.51,0,0,0-1,4.21,9.7,9.7,0,0,0,5.79,8.9l-11.6,52.27Zm0-2.06V336.16a5.76,5.76,0,0,0,1.58.1l11.16,65a9.78,9.78,0,0,0-5,3.45Zm14.57-.81-11.12-64.8a7.61,7.61,0,0,0,5.43-7.31,7.31,7.31,0,0,0-.16-1.51l0-.16L848,325.7A10.16,10.16,0,0,0,846,314.06a10,10,0,0,0-2.92-2l10.7-33.47a11.58,11.58,0,0,0,1.45.23ZM733.78,178.35l-6.3-7.35,8.28,6.23A10.12,10.12,0,0,0,733.78,178.35ZM590.46,145.92a5,5,0,0,0,.35-.39l15.13,11.16a7.18,7.18,0,0,0-.26,1.86,7.33,7.33,0,0,0,.84,3.41l-70.75,31.22-.57-.13A9.71,9.71,0,0,0,521.67,190l-54-12.3c0-.2-.1-.4-.17-.61l106.24-34.52a10.08,10.08,0,0,0,2.21,3.39A10.24,10.24,0,0,0,590.46,145.92ZM332.68,381.56l20.06,14.81a9.74,9.74,0,0,0,4.39,13.83l-21.91,65.9a10.45,10.45,0,0,0-2.34-.28h-.2Zm248.63,282a10.1,10.1,0,0,0-2.7,4.83l-32.76-10.64a7.26,7.26,0,0,0,.16-1.2l114.84-10.29L597.9,666.73a9.94,9.94,0,0,0-2.14-3.16,10.15,10.15,0,0,0-7.23-3h0A10.15,10.15,0,0,0,581.31,663.57ZM678,642.83l55-17.86a10.44,10.44,0,0,0,.86,1.63l-10.64,7.8a9.71,9.71,0,0,0-7.2-3.24,9.81,9.81,0,0,0-9.73,9.14Zm112.93-77.9-5.66-1.06,44.18-60.82a7.78,7.78,0,0,0,1.89,1.91L803.16,558.4a9.53,9.53,0,0,0-2.93-.48A9.72,9.72,0,0,0,790.89,564.93Zm44-58.63a5.61,5.61,0,0,0,.82.07,7.49,7.49,0,0,0,4.26-1.37l.12-.08.06-.13c.91-2.17,1.86-4.53,3-7.43l.05-.14,0-.14a7.05,7.05,0,0,0-.65-1.78,10,10,0,0,0,4.43-2.57,10.14,10.14,0,0,0,2-11.62l29.82-22.53a11.36,11.36,0,0,0,1.44,1.13L808.86,599.56l-.21-.08Zm40.13-56a11.15,11.15,0,0,0,2.32,6.78l-29.48,22.27a9.77,9.77,0,0,0-.93-1.09,10,10,0,0,0-5.1-2.71l12.32-55.48a9.07,9.07,0,0,0,2.15.28,9.75,9.75,0,0,0,5.05-1.41l17.39,23A11.24,11.24,0,0,0,875,450.3ZM841.2,311.37a10.12,10.12,0,0,0-2.33-.27l-.58,0L826.62,270.8A9.42,9.42,0,1,0,818.2,254L793,220.35l53.79,41.26a11.08,11.08,0,0,0-1.8,6A11.34,11.34,0,0,0,851.88,278Zm3.61-53.81-52.59-40.33a5.36,5.36,0,0,0-5.54-7.79l-51.76-61.78Zm-61-46.72-34-25.59a10.06,10.06,0,0,0-2.85-5.86,10.24,10.24,0,0,0-8.75-2.87L725,166.65a4.7,4.7,0,0,0,.45-2,4.75,4.75,0,0,0-2.95-4.39l1.83-9.78a10.53,10.53,0,0,0,2.36.29,11.09,11.09,0,0,0,6.42-2.05l51.51,61.47A5.35,5.35,0,0,0,783.81,210.84Zm-63.23-51a4.75,4.75,0,0,0-3,1.18l-3.64-2.76,3,3.49,0,0L689,149.05a9.58,9.58,0,0,0,.53-3.12,8.85,8.85,0,0,0-.21-1.86l26.33-2.53a11.23,11.23,0,0,0,6.76,8.33Zm-5.12-20.32-26.7,2.57a9.68,9.68,0,0,0-9-5.94,9.78,9.78,0,0,0-9.77,9.77,5.44,5.44,0,0,0,.05.72l-33.47,6.45-43.2-14A10.18,10.18,0,0,0,576,131.45l-.36.39-21.88-16.12a11.28,11.28,0,0,0,.74-2.75l161,25.51a7.5,7.5,0,0,0-.08,1S715.46,139.52,715.46,139.54ZM573.22,140.6l-106.4,34.56a9.75,9.75,0,0,0-18.41,4.49,10.12,10.12,0,0,0,.11,1.46l-10.28,3.34a10.19,10.19,0,0,0-19.55,4.8l-24.84,4.46a11.16,11.16,0,0,0-1.27-3l141.87-72.29a11.31,11.31,0,0,0,8.91,4.39,11.19,11.19,0,0,0,9.49-5.31l21.63,15.94A10.29,10.29,0,0,0,573.22,140.6ZM328.13,326.37a10.43,10.43,0,0,0,2.53,1.24v50l-20.12-14.86A11.11,11.11,0,0,0,308.93,349ZM333,496.22a10.34,10.34,0,0,0,3.54-.63L389,567.79a9.67,9.67,0,0,0-4.79,3.73L338,538.33a11.22,11.22,0,0,0-7.58-16.4ZM336.87,540l46.35,33.3a9.68,9.68,0,0,0-.72,3.65,9.76,9.76,0,0,0,17.48,6l22.92,31.54a2.69,2.69,0,0,0-.26.22A10.21,10.21,0,0,0,434.51,631l16.93,26.34c-.2.19-.39.37-.56.55l-116-116A11.37,11.37,0,0,0,336.87,540ZM437.1,629.17a10,10,0,0,0,2.37-3.85l15.14,4.9a7.2,7.2,0,0,0,2.24.74l74,24a6.08,6.08,0,0,0-.14,1.28c0,.18,0,.37,0,.57l-60.44,7.49a11.28,11.28,0,0,0-11.18-10.11,11.08,11.08,0,0,0-6.11,1.85L436.2,629.93A8.86,8.86,0,0,0,437.1,629.17Zm33.26,37.21,60.82-7.54a7.64,7.64,0,0,0,4,4.39l.91.21c.74.17,1.49.33,2.24.48h.1a7.53,7.53,0,0,0,6.18-3.28l34.13,12.84a9.81,9.81,0,0,0,2.55,4.55,10.18,10.18,0,0,0,12.88,1.26L631,693.15c-.05.17-.1.35-.15.53L470,668.23A11.67,11.67,0,0,0,470.36,666.37Zm128.14,2.28,71.36-23.19,36.46-3.26a9.84,9.84,0,0,0,1.2,3.6l-58,42.14a11.2,11.2,0,0,0-17.4,2.48l-34-16.17A10.42,10.42,0,0,0,598.5,668.66Zm110.22-21.23a9.68,9.68,0,0,0,7.24,3.27,9.78,9.78,0,0,0,9.76-9.77,9.64,9.64,0,0,0-1.35-4.92L735,628.19l.09.09a10.15,10.15,0,0,0,7.23,3h0a10.18,10.18,0,0,0,10.16-11L794,613.88a11.35,11.35,0,0,0,1,2.11L650.9,689.45ZM810,567.69a9.8,9.8,0,0,0-5.08-8.53l27.86-52.9L806.7,598.93a10.57,10.57,0,0,0-2.07-.21h-.16l-2.23-21.51A9.7,9.7,0,0,0,810,567.69Zm56-157.1a9.76,9.76,0,0,0-5.39-8.73l.4-.71v-.49c0-.24,0-.48,0-.73s0-.47,0-.71v-1.9l-2.2,3.87a10,10,0,0,0-1.55-.3V278.84c.31,0,.6-.06.89-.11l25.44,160.61a11.31,11.31,0,0,0-3.27,1.42l-17.43-23.06A9.72,9.72,0,0,0,866,410.59Z" transform="translate(-285.19 -89.82)"/><circle class="cls-4" cx="162.6" cy="549.68" r="39.88"/><path class="cls-5" d="M469,661.3a3.74,3.74,0,0,0-2,.58L451.3,645.63l-.09-.08a9.36,9.36,0,0,0,0-11.47L461.89,623a6.62,6.62,0,0,0,4.12,1.45,7.08,7.08,0,1,0-6.82-7.08,7.22,7.22,0,0,0,1.39,4.28l-10.67,11.08a8.51,8.51,0,0,0-11,0L434,627.62a4.11,4.11,0,0,0,.56-2.08,3.87,3.87,0,1,0-3.87,4,3.74,3.74,0,0,0,2-.58l4.93,5.12a9.38,9.38,0,0,0-1.29,9.21l-11.72,6.59a4.78,4.78,0,0,0-3.75-1.84,5,5,0,1,0,4.85,5,5.19,5.19,0,0,0-.22-1.51L437.16,645a8.69,8.69,0,0,0,7.24,4,8.49,8.49,0,0,0,1-.06l1.22,5.7a4,4,0,0,0-2.15,3.6,3.87,3.87,0,1,0,4-4l-1.22-5.71a8.68,8.68,0,0,0,2.73-1.56l.07.09,15.65,16.25a4.11,4.11,0,0,0-.56,2.08,3.87,3.87,0,1,0,3.87-4Zm-48.14-5.1a3.13,3.13,0,1,1,3-3.12A3.07,3.07,0,0,1,420.82,656.2Zm29.53,2a2,2,0,1,1-2-2.1A2.07,2.07,0,0,1,450.35,658.18Zm15.66-46a5.17,5.17,0,1,1-5,5.16A5.08,5.08,0,0,1,466,612.21Zm-37.39,13.32a2,2,0,1,1,2,2.1A2.07,2.07,0,0,1,428.62,625.53ZM444.4,647a7.21,7.21,0,1,1,6.94-7.2A7.08,7.08,0,0,1,444.4,647ZM469,667.42a2.11,2.11,0,1,1,2-2.1A2.07,2.07,0,0,1,469,667.42Z" transform="translate(-285.19 -89.82)"/><circle class="cls-4" cx="284.66" cy="443.11" r="39.88"/><path class="cls-5" d="M566.68,514.86l-11.2,7.31c-1.74-5.54-1.68-9.86.59-11.34S562.32,511,566.68,514.86Zm10.4,31.24s-1.37,8.29,8.15,10.46c0,0-5.77-3.22-4-6.8,0,0,2-2.28,3.55-.33,0,0-.13-4.6-3.84-5.88Zm7.09-17.16a19.86,19.86,0,0,0-6.77-1.46c-.6-1.11-1.26-2.23-2-3.34s-1.59-2.31-2.43-3.36a2.24,2.24,0,0,1-.92,1.17,1.89,1.89,0,0,1-2.64-.31l-1-1.56a1.89,1.89,0,0,1,.77-2.54,2.37,2.37,0,0,1,.66-.3c-.71-.7-1.42-1.36-2.13-1.95l-12,7.82a40.14,40.14,0,0,0,5,10.6c.72,1.11,1.48,2.16,2.25,3.15a19.84,19.84,0,0,0-1.4,6.81c-.2,6.57,2.76,11.51,6.61,11l.37-12a16.15,16.15,0,0,0,6.71,3.37l5.57-3.64a16.14,16.14,0,0,0-.38-7.47l11.13,4.49C593.59,536.1,590.26,531.4,584.17,528.94Z" transform="translate(-285.19 -89.82)"/><circle class="cls-4" cx="39.88" cy="421.36" r="39.88"/><path class="cls-5" d="M340.54,504.12H326.17a12.14,12.14,0,0,0-1.72-4.32,4.93,4.93,0,0,1,.86-1.28c.37-.38,1.46-.29,2.06-.16,0,0,.28.32.45.47,2.42,2.21,5.59,1.51,7.22,1,8.56-2.66,4.83-13.91,4.83-13.91-1.52,2.46-10.68,2.94-12.46,6.31a6.84,6.84,0,0,0-1,4c.59-.06,7.39-.89,10.92-5.07,0,0-4.12,6.42-10.59,6.26-1.28,0-2.06-.06-2.92,1.9a3.31,3.31,0,0,0-1.62-.21c-6.47.16-10.59-6.26-10.59-6.26,3.52,4.18,10.33,5,10.91,5.07a6.83,6.83,0,0,0-1-4c-1.78-3.36-10.94-3.84-12.46-6.31,0,0-3.73,11.25,4.83,13.91,1.63.51,4.8,1.2,7.22-1,.17-.15.45-.47.45-.47.59-.13,1.68-.22,2.06.16a8.46,8.46,0,0,1,1.72,3.91H309.6a2.27,2.27,0,0,0-2.27,2.27v2.5a2.27,2.27,0,0,0,2.27,2.27h.69l1.81,23a2.27,2.27,0,0,0,2.27,2.27h21.13a2.27,2.27,0,0,0,2.28-2.27l2.07-23h.68a2.28,2.28,0,0,0,2.28-2.27v-2.5A2.28,2.28,0,0,0,340.54,504.12Z" transform="translate(-285.19 -89.82)"/><circle class="cls-4" cx="134.66" cy="349.08" r="39.88"/><path class="cls-5" d="M446.9,446.24a10.58,10.58,0,0,0-2.17-4.88,21.54,21.54,0,0,0-2.29-2.59,26.8,26.8,0,0,0,2-2.68,12.86,12.86,0,0,0,2.21-5.63,7.4,7.4,0,0,0,0-1.57,5.58,5.58,0,0,0-.16-.8l-.12-.41c0-.13-.09-.21-.13-.32a6,6,0,0,0-1.84-2.41,10.58,10.58,0,0,0-5-1.91,23.36,23.36,0,0,0-4.79-.17,41.41,41.41,0,0,0-5.92.83c-.25-.78-.53-1.57-.85-2.37a23.47,23.47,0,0,0-2.2-4.26,10.58,10.58,0,0,0-3.86-3.69,6.31,6.31,0,0,0-1.43-.51,5.67,5.67,0,0,0-.76-.12l-.33,0h-.44a6.52,6.52,0,0,0-3,.94,12.85,12.85,0,0,0-4.15,4.4,29.16,29.16,0,0,0-2.65,5.81,40.11,40.11,0,0,0-4.54-.35,23.4,23.4,0,0,0-4.78.4,10.56,10.56,0,0,0-4.89,2.14,6.33,6.33,0,0,0-1,1.12,5.8,5.8,0,0,0-.4.66l-.15.29,0,.09,0,0,0,.09-.07.19a6.52,6.52,0,0,0-.29,3.13,12.83,12.83,0,0,0,2.47,5.52,26.82,26.82,0,0,0,2.18,2.6,21.43,21.43,0,0,0-2.17,2.71,10.57,10.57,0,0,0-1.94,5,6.35,6.35,0,0,0,.08,1.51,5.55,5.55,0,0,0,.18.75l.1.32,0,.09,0,0,0,.09.08.18a6.52,6.52,0,0,0,2,2.41,12.83,12.83,0,0,0,5.65,2.16,29.78,29.78,0,0,0,7,.18,33.25,33.25,0,0,0,4.31,9.74,12.86,12.86,0,0,0,4.37,4.18,7.43,7.43,0,0,0,1.47.58,5.51,5.51,0,0,0,.8.16l.43,0h.34a6,6,0,0,0,2.92-.78,10.59,10.59,0,0,0,3.67-3.88,23.48,23.48,0,0,0,2-4.36,42.58,42.58,0,0,0,1.59-6.34,31.24,31.24,0,0,0,8.59-.43,12.89,12.89,0,0,0,5.54-2.42,7.41,7.41,0,0,0,1.1-1.13,5.41,5.41,0,0,0,.45-.68l.21-.38c.06-.12.09-.21.13-.32A6,6,0,0,0,446.9,446.24Zm-16.66-19.32c-.18-.18-.37-.35-.56-.52l.5.26Zm-.79-.72a14.59,14.59,0,0,0-8.57-3.48l-1.13-.37.69-.24a52.43,52.43,0,0,1,6.11-1.64q.83-.17,1.71-.31a41.76,41.76,0,0,1,1.62,5.17c.1.41.19.81.27,1.21Zm-8.69-3.49-.82,0c-.43,0-.86,0-1.28.06l1-.37Zm-2.21,0a14.6,14.6,0,0,0-7.56,3,50.19,50.19,0,0,1,1-5.05l.65.09a52.51,52.51,0,0,1,6.18,1.35l.76.22Zm-11.68,8a14.6,14.6,0,0,0-1.59,6.64c0,.24,0,.48,0,.72a43.27,43.27,0,0,1-5.26-3.79,39.68,39.68,0,0,1,5-4.3c.71-.52,1.4-1,2.06-1.42C407,429.27,406.94,430,406.87,430.7Zm23.75,16.68.15-.15,0,.17Zm-.12-20.21-.07-.4c1.27.68,2.68,1.49,4.18,2.48a39.76,39.76,0,0,1,5.23,4.09,43.14,43.14,0,0,1-5.24,4.15c0-.05,0-.1,0-.15A14.6,14.6,0,0,0,430.5,427.18Zm4.17-7.53a22.52,22.52,0,0,1,4.56.52,9.22,9.22,0,0,1,4.15,2,4.22,4.22,0,0,1,1.24,4,11,11,0,0,1-2.24,4.41,24.25,24.25,0,0,1-2.05,2.29,48.7,48.7,0,0,0-5.56-3.85c-1.58-.94-3-1.72-4.35-2.37-.08-.45-.16-.91-.25-1.39a52,52,0,0,0-1.31-5.2A34.23,34.23,0,0,1,434.66,419.65ZM414,415.36a11,11,0,0,1,3-3.91,4.53,4.53,0,0,1,2-.85l.13,0h.1c-.1,0,0,0,0,0h.33a3.2,3.2,0,0,1,.54,0,4.77,4.77,0,0,1,1.05.27,9.23,9.23,0,0,1,3.59,2.89,22.47,22.47,0,0,1,2.42,3.9c.36.73.68,1.45,1,2.17l-1.64.38c-2.38.61-4.41,1.26-6.07,1.85l-.75.27-.82-.26c-1.68-.52-3.74-1.07-6.14-1.57l-.62-.12A27.1,27.1,0,0,1,414,415.36Zm-19.07,12a4.52,4.52,0,0,1,0-2.18l0-.13,0-.07v0c0,.09,0,0,0,0l.12-.31a3.21,3.21,0,0,1,.24-.49,4.65,4.65,0,0,1,.65-.87,9.23,9.23,0,0,1,4-2.2,22.5,22.5,0,0,1,4.53-.73,33,33,0,0,1,4.37,0,44.29,44.29,0,0,0-1.3,5.07q-.28,1.44-.48,2.91c-.72.44-1.47.9-2.25,1.41a48.58,48.58,0,0,0-5.35,4.08,24.38,24.38,0,0,1-2.18-2.21A11,11,0,0,1,394.91,427.33Zm7,21.15a11,11,0,0,1-4.77-1.31,4.53,4.53,0,0,1-1.55-1.53l-.07-.11,0-.06,0,0c0,.1,0,0,0,0l-.13-.3a3.12,3.12,0,0,1-.18-.51,4.64,4.64,0,0,1-.15-1.08,9.22,9.22,0,0,1,1.31-4.42,20.58,20.58,0,0,1,1.81-2.66,40.28,40.28,0,0,0,6.08,4.89c.69.46,1.39.89,2.1,1.32a14.36,14.36,0,0,0,.95,2c.17,1.19.38,2.38.63,3.56A28,28,0,0,1,401.88,448.48Zm26.28,8.17a22.55,22.55,0,0,1-2.21,4,9.22,9.22,0,0,1-3.44,3.07,4.22,4.22,0,0,1-4.18-.38,11,11,0,0,1-3.23-3.75,32.82,32.82,0,0,1-3.19-8.77c.55-.09,1.1-.19,1.65-.3A14.68,14.68,0,0,0,427,450.2h0c1,.15,2.07.28,3.1.37A35,35,0,0,1,428.16,456.65Zm15.18-10.58a11,11,0,0,1-4.7,1.53,30.21,30.21,0,0,1-7.68-.18c0-.16,0-.31.05-.47a14.62,14.62,0,0,0,2.78-4.8c.75-.49,1.48-1,2.2-1.52a40.37,40.37,0,0,0,5.86-5.2,20.45,20.45,0,0,1,1.93,2.56,9.21,9.21,0,0,1,1.51,4.35A4.22,4.22,0,0,1,443.34,446.07Z" transform="translate(-285.19 -89.82)"/><circle class="cls-4" cx="552.49" cy="237.09" r="39.88"/><path class="cls-5" d="M855.39,349.16H839.64v-4.6l.1-.13a29.73,29.73,0,0,1,5.23-7.09c5.66,0,9.09-1,11.3-3.34s3.15-5.51,3.05-10.43a1,1,0,0,0-1-1c-9.05,0-14.64,2.21-14.76,13.4a40.38,40.38,0,0,0-3.94,4.73V327.51c0-1.23,1.36-3.63,3.38-5.91,9.06,0,13.35-1.57,13.35-13.78a.93.93,0,0,0-1-1c-9.26,0-13.69,1.35-13.78,13.42a27.43,27.43,0,0,0-2,2.48l0-.11V311.77a18.23,18.23,0,0,1,.24-3.16,11.79,11.79,0,0,0,7.73-5,10.54,10.54,0,0,0,.89-8.86,1,1,0,0,0-1.08-.69c-5.12.79-8.76,2.85-10.24,6.1A8.12,8.12,0,0,0,838,308a20.12,20.12,0,0,0-.32,3.77v6.81a22.58,22.58,0,0,0-2-2.38c-.05-4.43-.85-7.06-2.65-8.86s-4.43-2.46-8.17-2.46a1,1,0,0,0-1,1c0,7,1.81,11.66,10.42,11.81,1.13,1.21,3.36,4,3.36,5.91v12.65a20.5,20.5,0,0,0-2.56-2.71l-.4-.4c-.09-13.71-6.57-16.43-17.71-16.43a.93.93,0,0,0-1,1c0,11,5.83,16.57,17.22,16.73l.59.59a18,18,0,0,1,3.84,4.65v9.52H821.93a1,1,0,1,0,0,2h33.46a1,1,0,0,0,0-2Zm2-24.6c-.1,3.84-.89,6.4-2.46,8.07s-4.24,2.55-8.42,2.73a10.62,10.62,0,0,1,4.48-4,1,1,0,1,0-.79-1.77,12,12,0,0,0-4.44,3.44C846.62,326.19,850.42,324.65,857.36,324.56ZM839,300.94c1.08-2.46,3.84-4.13,7.87-4.82a8.14,8.14,0,0,1-.89,6.5,9.8,9.8,0,0,1-5.5,3.92,14.75,14.75,0,0,1,1.57-3,1,1,0,0,0-1.67-1.08,17.11,17.11,0,0,0-1.51,2.79A5.79,5.79,0,0,1,839,300.94Zm-13.09,5.91c2.66.1,4.53.69,5.81,1.87a8.75,8.75,0,0,1,2,5.26l-2.06-2.21A1,1,0,1,0,830.1,313l2.32,2.55C827.23,315,826,312,825.86,306.85ZM818,318.66c8.87.18,13.74,2.23,14.63,11.51a17.29,17.29,0,0,0-6.36-5.51,1,1,0,0,0-.79,1.77c2.21.94,4.35,2.91,6.48,6C822.75,331.89,818.28,327.46,818,318.66Zm36.4-9.84c-.17,9-2.76,10.57-9.55,10.79a40.78,40.78,0,0,1,4.25-4.1,1,1,0,0,0-1.18-1.57,38.2,38.2,0,0,0-4.25,4C844.16,310,847.15,308.9,854.4,308.82Z" transform="translate(-285.19 -89.82)"/><circle class="cls-4" cx="421.61" cy="361.3" r="39.88"/><path class="cls-5" d="M677.82,457.23A12.35,12.35,0,1,0,701,465.79c2.36-6.39-4.33-23.88-4.33-23.88S680.19,450.83,677.82,457.23Zm4.05,2.51c.78,7,4.73,9.34,4.73,9.34C679.57,467,681.87,459.74,681.87,459.74Z" transform="translate(-285.19 -89.82)"/><path class="cls-5" d="M731.45,457.89s-7.23,3.91-8.27,6.72a5.42,5.42,0,0,0,10.17,3.76C734.39,465.57,731.45,457.89,731.45,457.89ZM725,465.71c.34,3.05,2.08,4.1,2.08,4.1C723.95,468.9,725,465.71,725,465.71Z" transform="translate(-285.19 -89.82)"/><path class="cls-5" d="M727.79,446.53c1.93-5.24-3.55-19.55-3.55-19.55s-13.48,7.3-15.41,12.53a10.11,10.11,0,0,0,19,7Zm-15.65-5c.64,5.69,3.87,7.65,3.87,7.65C710.26,447.5,712.15,441.57,712.15,441.57Z" transform="translate(-285.19 -89.82)"/><circle class="cls-4" cx="441.44" cy="541.95" r="39.88"/><path class="cls-5" d="M750,624.2h0l-1.95-2v-.13h-.13l-12-12.05,0-.27a.54.54,0,0,0-.53-.47h-.17l-.15-.15-.23.15h-.38a.54.54,0,0,0-.53.49v.1l-22.06,14H700.61l-3.79,4.89h5.94v12.65a1.16,1.16,0,0,0-.52,1.72,2.66,2.66,0,0,0-.31.24,1.43,1.43,0,0,0-.21.23l-.09.12,0,.06,0,0,0,.08c0,.11-.09.23-.14.36a3.05,3.05,0,0,0-.07.4,2.19,2.19,0,0,0,.55,1.63,2.14,2.14,0,0,0,.72.52l.08,0,0,0h0l0,0h0l.21.05a1.34,1.34,0,0,0,.42.05,2,2,0,0,0,.78-.13l.32-.15.26-.2a1.81,1.81,0,0,0,.36-.43,1.72,1.72,0,0,0,.17-.39c0-.21.05-.34.05-.34l-.24.24a2.89,2.89,0,0,1-.28.21,2.83,2.83,0,0,1-.38.18l-.22.07-.24,0a1.6,1.6,0,0,1-.49,0,.81.81,0,0,1-.24-.07l-.1,0h0l0,0-.08,0a.83.83,0,0,1-.24-.17c0-.05-.1-.07-.15-.15a1.45,1.45,0,0,1-.27-.42,1.68,1.68,0,0,1-.13-.48c0-.08,0-.16,0-.25s0-.16,0-.24h0l0,0h0v0l0-.07,0-.14a.89.89,0,0,1,.09-.23c.05-.08.09-.16.14-.24a1.16,1.16,0,1,0,.7-2.14V628.82h25.37a3.81,3.81,0,0,0,3.45,2.21h.54v26.22h-4.35v2.51h13.63v-2.51h-4.57V631h1.88v-2.1h3.68v3.31h1.79v-3.31h1.52v3.31H748v-3.31h1.57a.54.54,0,0,0,.54-.54v-3.81A.54.54,0,0,0,750,624.2Zm-15.07-13.66h0l.45,3.72h-.81Zm-.46,4.8h.89a.5.5,0,0,0,.14,0l.31,2.6H734.2ZM699,627.74l1.82-2.35,1.82,2.35ZM701.9,625h5.5l-3.87,2.11Zm2.73,2.73,3.73-2,1.57,2Zm4.54-2.73h6.18l-4.53,2.13Zm2.88,2.73,4.41-2.07,2.07,2.07ZM717.3,625h4.87l-2.78,2.09Zm3,2.73,3.28-2.46,2.6,2.46Zm7.45,0h-.19a.52.52,0,0,0-.16-.33L724.88,625h2.89Zm.54-6v2.18H713.84l19.93-12.68-.64,6.66h-1v0A3.81,3.81,0,0,0,728.31,621.75Zm8,35.23h-2.14l2.14-2.26Zm-2.56-1.13v-4.94l2.07,2.76Zm2.56-3.33-2.3-3.07,2.3-2.3Zm-2.56-4.34V643l1.67,3.56Zm2.56-2.33-2.34-5,2.34-1.81Zm-2.56-6.18v-4.26l1.63,3Zm2.56-1.81L734,633.59l2.32-1.8Zm-2.56-5.45V631h1.79Zm4.05-5.87h-4.46a3.79,3.79,0,0,1-3.79-3.79c0-2.88,1.7-3.79,3.79-3.79h4.46v7.59Zm5.14,1.3h-3.68v-2.73h3.68Zm3.32,0h-1.52v-2.73h1.52Zm0-5.75V624h-1.52V622.1h-1.79V624h-3.68v-6.13h-2.36l-.73-6.12,10.24,10.32h-.15Zm1.79,1.66.28.28H748Zm1,4.09h-1v-2.73h1Z" transform="translate(-285.19 -89.82)"/><circle class="cls-4" cx="278.89" cy="222.65" r="39.88"/><path class="cls-5" d="M587.71,293.84a3.8,3.8,0,1,0-7.34-2A14,14,0,0,1,579,295.1l-17.81-4.75a14.64,14.64,0,0,1,.22-2.36l11.77,3.14a1.12,1.12,0,1,0,.57-2.15l-12-3.19a3.8,3.8,0,0,0-7.46-.84c-2.28,8.55,1.28,17.43,5.61,26.53-8,5.57-15.77,11.55-18.08,20.22a3.8,3.8,0,0,0,6.75,3.19L567.79,340a3.8,3.8,0,0,0,7.45.59c2.28-8.57-1.29-17.44-5.61-26.53C577.67,308.49,585.4,302.51,587.71,293.84Zm-9.94,3.23a24.51,24.51,0,0,1-1.74,2.08l-14.2-3.79a24.35,24.35,0,0,1-.47-2.66Zm-14.28,3.58c-.36-.94-.69-1.88-1-2.8L574.2,301c-.71.65-1.46,1.3-2.24,1.94Zm6.27,4c-1.11.84-2.27,1.66-3.45,2.49-.61-1.31-1.21-2.6-1.76-3.88Zm-13.25-19.11a1.57,1.57,0,1,1,3,.81c-1.28,4.81-.12,10,2,15.43a1.12,1.12,0,0,0,.17.43c.81,2,1.76,4.13,2.75,6.22l-1.79,1.22-.83.57C557.75,301.6,554.45,293.25,556.51,285.52Zm-9.44,47.56a1.57,1.57,0,0,1-3-.81c2.35-8.83,11.26-14.91,19.87-20.8s16.56-11.31,18.61-19a1.57,1.57,0,1,1,3,.81c-2.35,8.83-11.26,14.91-19.87,20.8S549.12,325.38,547.07,333.08Zm8.13-8.32c.7-.66,1.44-1.3,2.22-1.95l8.79,2.34c.36.94.68,1.87,1,2.79Zm12.63,5.68a23.64,23.64,0,0,1,.44,2.66l-16.58-4.42a23.77,23.77,0,0,1,1.7-2.08Zm-8.22-9.35c1.18-.89,2.42-1.78,3.69-2.67.66,1.4,1.29,2.78,1.87,4.15Zm-10.12,11.72a14.3,14.3,0,0,1,1-2.16l17.92,4.78a14.4,14.4,0,0,1-.25,2.35Zm23.6,7.21a1.57,1.57,0,1,1-3-.81c1.8-6.76-1.23-14.3-4.91-22.08l1.79-1.22.83-.57C571.84,323.93,575.15,332.27,573.08,340Z" transform="translate(-285.19 -89.82)"/><circle class="cls-4" cx="551.01" cy="400.25" r="39.88"/><path class="cls-5" d="M859.26,492.39a31.68,31.68,0,0,1-11.87-.8,44.19,44.19,0,0,1-8.87-3.08,2.06,2.06,0,0,1-.45.3,1,1,0,0,1,.29.58l3.32,30.29a1,1,0,0,1,0,.33h4.51v2.54h-17V520h4.39a1,1,0,0,1,0-.31l2.86-30.29a1,1,0,0,1,.16-.45l-.22-.07c-4.27,4.07-15.11,12.64-17.66,14.89-3.25,2.86-.71-4.95-.71-4.95a31.67,31.67,0,0,1,9-7.83,46,46,0,0,1,8.11-4,2,2,0,0,1,.06-.54,2.06,2.06,0,0,1,.47-.89c-3.64-4.55-11-16.27-13-19-2.55-3.5,5-.25,5-.25,1.59,1.43,4,4.16,6.74,9.64a42.61,42.61,0,0,1,3.36,9,2.06,2.06,0,0,1,1.47,1.44c5.82.12,19.72,1.74,23.14,2C866.58,488.67,859.26,492.39,859.26,492.39Z" transform="translate(-285.19 -89.82)"/><circle class="cls-4" cx="375.73" cy="121.89" r="39.88"/><path class="cls-5" d="M680.79,234.4a4.08,4.08,0,0,1-4.07,4.08H645.12A4.08,4.08,0,0,1,641,234.4a1.79,1.79,0,0,1,.12-.64l10.94-28.68s0-.09,0-.14V188.52h-1.29a1.79,1.79,0,0,1,0-3.58h3.08a1.79,1.79,0,0,1,1.79,1.79v18.36a1.83,1.83,0,0,1,0,.31,2.21,2.21,0,0,1-.13.72L649,223.38h23.77l-6.81-17.25a1.79,1.79,0,0,1-.12-.58l0-.11a2,2,0,0,1,0-.21v-18.5a1.79,1.79,0,0,1,1.79-1.79h3.16a1.79,1.79,0,0,1,0,3.58h-1.37v16.55l11.32,28.68A1.78,1.78,0,0,1,680.79,234.4Zm-23.34-15a1.34,1.34,0,1,1,1.34,1.34A1.34,1.34,0,0,1,657.45,219.39Zm.89,0a.45.45,0,1,0,.45-.45A.45.45,0,0,0,658.34,219.39Zm6-1.34a1.34,1.34,0,1,1,1.34,1.34A1.35,1.35,0,0,1,664.39,218Zm.9,0a.45.45,0,1,0,.45-.45A.45.45,0,0,0,665.29,218Zm-4.63-4.48a1.87,1.87,0,1,1,1.87,1.87A1.87,1.87,0,0,1,660.66,213.57Zm.9,0a1,1,0,1,0,1-1A1,1,0,0,0,661.55,213.57Z" transform="translate(-285.19 -89.82)"/><circle class="cls-4" cx="90.23" cy="133.75" r="39.88"/><path class="cls-5" d="M402.72,200.12H348.11a.9.9,0,1,0,0,1.8h17.4v1.84a9.91,9.91,0,0,0-9,9.86v25l-1.19-1.53a.9.9,0,1,0-1.42,1.11l2.8,3.6h0l.06.06h0l.07.07h0l.07,0h0l.06,0h0l.07,0h0l.07,0h.45l.06,0h0l.06,0h0l.06,0,0,0,.06,0,0,0,.07-.06,0,0,0,0h0l2.8-3.6a.9.9,0,1,0-1.42-1.11l-1.19,1.53V219.3a9.89,9.89,0,0,0,16.2,0v13a9.91,9.91,0,0,0,9,9.86V244h-3.9a.9.9,0,0,0-.89.8l-1.2,10.77a.9.9,0,0,0,.89,1h12a.9.9,0,0,0,.88-1.07l-1.19-10.7a.9.9,0,0,0-.89-.8h-3.9v-1.84a9.91,9.91,0,0,0,9-9.86V201.92h8.4a.9.9,0,0,0,0-1.8Zm-13.31,54.61h-10l1-9h8Zm-23-33a8.1,8.1,0,0,1-.9-16.15v1.81a6.3,6.3,0,1,0,6.84,8.34.9.9,0,1,0-1.7-.6,4.5,4.5,0,1,1,0-3,.9.9,0,1,0,1.7-.6,6.32,6.32,0,0,0-5-4.13v-1.82a8.1,8.1,0,0,1-.9,16.15Zm18.9,18.58v-1.82a6.32,6.32,0,0,0,5-4.13.9.9,0,1,0-1.7-.6,4.5,4.5,0,1,1,0-3,.9.9,0,1,0,1.7-.6,6.3,6.3,0,1,0-6.84,8.34v1.81a8.1,8.1,0,1,1,1.8,0Zm7.2-13.73a9.89,9.89,0,0,0-16.2,0v-13a9.91,9.91,0,0,0-9-9.86v-1.84h25.2Z" transform="translate(-285.19 -89.82)"/><circle class="cls-4" cx="270.82" cy="39.88" r="39.88"/><path class="cls-5" d="M563.08,122.77a9.3,9.3,0,1,1-13.14-.47A9.3,9.3,0,0,1,563.08,122.77Zm4.43-7.39c.47,1.48.88,3,1.22,4.52l1.36.44a47.42,47.42,0,0,1,7.82,3.45,24.24,24.24,0,0,1,4.05,2.86,11,11,0,0,1,3.23,4.47,6.18,6.18,0,0,1,.23,3.12c0,.12,0,.22-.07.35l-.13.42a5.48,5.48,0,0,1-.32.78,7.62,7.62,0,0,1-.87,1.38,13.31,13.31,0,0,1-5.09,3.63,33.24,33.24,0,0,1-9.56,2.38,33.22,33.22,0,0,1-3.05,9.37,13.3,13.3,0,0,1-4,4.82,7.65,7.65,0,0,1-1.44.77,5.66,5.66,0,0,1-.8.26l-.43.1-.35,0a6.18,6.18,0,0,1-3.1-.46,10.94,10.94,0,0,1-4.23-3.54,24.3,24.3,0,0,1-2.56-4.24,47.4,47.4,0,0,1-2.88-8c-.12-.48-.24-.93-.34-1.39q-2.25-.68-4.43-1.54A35.83,35.83,0,0,1,531,133a13.27,13.27,0,0,1-3.67-5.07,6.73,6.73,0,0,1-.37-3.23l0-.2v-.15l0-.1.09-.33a5.89,5.89,0,0,1,.27-.75,6.56,6.56,0,0,1,.79-1.35,10.93,10.93,0,0,1,4.49-3.21,24.27,24.27,0,0,1,4.75-1.42,44.42,44.42,0,0,1,7-.74,44.38,44.38,0,0,1,1.24-6.94,24.24,24.24,0,0,1,1.75-4.64A10.94,10.94,0,0,1,551,100.6a6.55,6.55,0,0,1,1.41-.69,5.84,5.84,0,0,1,.77-.21l.34-.07.1,0H554a6.72,6.72,0,0,1,3.19.6,13.26,13.26,0,0,1,4.79,4A35.86,35.86,0,0,1,567.51,115.38ZM566,143.45a60.55,60.55,0,0,1-11.91-.76,64.12,64.12,0,0,1-7.59-1.74c.12.41.23.81.36,1.23a38.7,38.7,0,0,0,3.33,7.74,23.27,23.27,0,0,0,2.75,3.86,9.53,9.53,0,0,0,3.9,2.75,4.37,4.37,0,0,0,4.25-.89,11.4,11.4,0,0,0,2.86-4.24A31.7,31.7,0,0,0,566,143.45Zm2.82-23.28a64.13,64.13,0,0,1,1.19,7.7,60.53,60.53,0,0,1-.09,11.93,31.67,31.67,0,0,0,8.08-1.47,11.39,11.39,0,0,0,4.43-2.55,4.37,4.37,0,0,0,1.19-4.17,9.53,9.53,0,0,0-2.46-4.09,23.22,23.22,0,0,0-3.66-3,38.71,38.71,0,0,0-7.49-3.87Zm-10.59-2.76,1.47.25c1,.18,2.36.45,4.13.87l.93.23c-.18-.8-.37-1.6-.57-2.39a37.16,37.16,0,0,0-4.39-10.55,11.41,11.41,0,0,0-3.58-3.65,4.67,4.67,0,0,0-2.16-.63h-.23l-.34,0a3.27,3.27,0,0,0-.55.1,4.83,4.83,0,0,0-1,.4,9.54,9.54,0,0,0-3.34,3.4,23.34,23.34,0,0,0-2,4.29,36.49,36.49,0,0,0-1.66,6.68l1.13,0c2.54,0,4.74.11,6.55.28s3.22.36,4.19.49l1.47.23-1.48-.22c-1-.12-2.38-.32-4.19-.44a54.12,54.12,0,0,0-6.54-.06l-1.2.08c-.06.4-.12.8-.17,1.19a54.21,54.21,0,0,0-.41,6.53c0,1.82.09,3.24.14,4.21l.11,1.49-.13-1.49c-.07-1-.15-2.39-.19-4.21s0-4,.19-6.56c0-.37.07-.75.1-1.13a36.47,36.47,0,0,0-6.78,1.18,23.37,23.37,0,0,0-4.43,1.7,9.55,9.55,0,0,0-3.63,3.09,4.82,4.82,0,0,0-.47,1,3.43,3.43,0,0,0-.14.54l-.06.34c0,.06,0,0,0,0v.24a4.67,4.67,0,0,0,.48,2.2,11.41,11.41,0,0,0,3.39,3.83A37.15,37.15,0,0,0,543,136c.77.26,1.56.51,2.34.74-.06-.32-.12-.65-.16-.95-.29-1.79-.46-3.21-.57-4.18l-.14-1.48.16,1.48c.13,1,.29,2.38.63,4.17.06.31.13.65.2,1a72.22,72.22,0,0,0,9.22,2.12,71.5,71.5,0,0,0,11.68,1,71.54,71.54,0,0,0-.14-11.72,72.33,72.33,0,0,0-1.46-9.35l-1-.27c-1.76-.47-3.16-.73-4.11-.92Z" transform="translate(-285.19 -89.82)"/></g></g></g></svg>