<svg xmlns="http://www.w3.org/2000/svg" viewBox="0 0 612.38 619.26"><defs><style>.cls-1{fill:#fff;}.cls-2{fill:#03a9f4;}</style></defs><title>Asset 1</title><g id="Layer_2" data-name="Layer 2"><g id="_1200X800" data-name="1200X800"><path class="cls-1" d="M601.08,350.82a5.47,5.47,0,0,0-.68.05L574.92,190a11.26,11.26,0,1,0-11-19.21L450.79,57.7a11.1,11.1,0,0,0,2.05-6.42,11.28,11.28,0,0,0-22.16-3L269.42,22.76a11.28,11.28,0,0,0-22.55.61,11,11,0,0,0,1.31,5.18L106.11,100.94a11.25,11.25,0,1,0-14.55,16.94L20,258.27a11.07,11.07,0,0,0-4.31-.88,11.29,11.29,0,1,0,0,22.58,5.51,5.51,0,0,0,.72-.06L40.8,433.71A11.26,11.26,0,0,0,42.88,456a11.07,11.07,0,0,0,5-1.24L164.42,571.29A11.28,11.28,0,1,0,184.22,582L345.36,607.5a4.05,4.05,0,0,0,0,.46,11.29,11.29,0,1,0,22.58,0,11.1,11.1,0,0,0-1.2-5l144.44-73.6a11.25,11.25,0,1,0,14.3-17.09L596.7,372.48a11,11,0,0,0,4.38.92,11.29,11.29,0,1,0,0-22.58ZM508.34,523.74,467,530.11a10,10,0,0,0-1.67-3.35l43.27-39.94a9.74,9.74,0,0,0,6.45,2.45l2.23,21.51a11.19,11.19,0,0,0-9.13,11A10.22,10.22,0,0,0,508.34,523.74Zm-197.55,65.9a10.17,10.17,0,0,0,1.31-1.74l22.48,10.7ZM24.17,276.17l21.3,15.71v96a10.21,10.21,0,0,0,.3,20l-2.55,25.67-.34,0h-.08L18.45,279.65A11.35,11.35,0,0,0,24.17,276.17ZM109,107.51l24.81-4.45a10.2,10.2,0,0,0,1.68,3.33l-35.78,33a9.69,9.69,0,0,0-6.45-2.46,9.75,9.75,0,0,0-1.76,19.34l-1.24,15.72L54.42,221.32a10.2,10.2,0,0,0-13,15.57L22.21,259.5l-.41-.27L93.34,118.84a11,11,0,0,0,4.47,1,11.3,11.3,0,0,0,11.29-11.29A9.22,9.22,0,0,0,109,107.51ZM72,304.23a9.7,9.7,0,0,0-3.22,2.35l-21.29-15.7V239.93a10.3,10.3,0,0,0,3.46-.17Zm81.64-206,10.25-3.32a9.74,9.74,0,0,0,5.88,5.77l.45,1.26-16.38-1.63A10.71,10.71,0,0,0,153.63,98.19Zm56.23,7.63L182.56,93.3a9.08,9.08,0,0,0,.2-1.82l51.93,11.84a9.77,9.77,0,0,0-2.47,4.73Zm287.49,22.86-12.23,8.1-23-31.61a10.28,10.28,0,0,0,1.68-2.64l33.45,22.07a5.08,5.08,0,0,0,.06,4.08ZM183.45,454.13l-55.91.49a9.73,9.73,0,0,0-9.69-8.83,8.82,8.82,0,0,0-1.13.08l-3.58-70.21h.15a7.46,7.46,0,0,0,4.42-1.45l67.18,72.69a7.57,7.57,0,0,0-1.8,4.91A7.68,7.68,0,0,0,183.45,454.13ZM335.74,69.87l15.33-2.95,67.15,21.81-24,17a7.6,7.6,0,0,0-4.89-1.79,7.34,7.34,0,0,0-1.29.11,9.7,9.7,0,0,0-11.42-3.16L335,73.7a7.49,7.49,0,0,0,.8-3.34A4.15,4.15,0,0,0,335.74,69.87ZM530.3,179.5,519,183.43l-7.13-9.83,16.62-.79a8.71,8.71,0,0,0-.07,1.1A9.37,9.37,0,0,0,530.3,179.5Zm12.77,232.75-122,44.8a7.67,7.67,0,0,0-5.46-4l4.25-84.93a7.6,7.6,0,0,0,6.16-4l117,44.64a7.07,7.07,0,0,0-.24,1.8A6.94,6.94,0,0,0,543.07,412.25Zm-264.65-268L207,179.95a7.55,7.55,0,0,0-6.32-3.4,7,7,0,0,0-1.64.2l-26-72.55,36.63,3.63L277.55,139a7.08,7.08,0,0,0-.15,1.43A7.62,7.62,0,0,0,278.42,144.21ZM215.5,108.4,232,110a9.75,9.75,0,0,0,3.78,7.67ZM251,107l33.5,7.64a3.62,3.62,0,0,0,0,.41,6.71,6.71,0,0,0,5,6.46L286.76,133a7,7,0,0,0-1.72-.23,7.57,7.57,0,0,0-6.9,4.4l-38.31-17.58A9.77,9.77,0,0,0,251.52,110,9.51,9.51,0,0,0,251,107ZM543.74,235.72,455.6,210.37a7.72,7.72,0,0,0,.1-1.19,7,7,0,0,0-.19-1.58l25.3-8.82A9.67,9.67,0,0,0,494.41,194l23.79-8.29L547,225.35a7,7,0,0,0-.61.52h0A10.24,10.24,0,0,0,543.74,235.72ZM127.86,322a4.76,4.76,0,0,0,1.79,1.91l-14.48,36.71a7,7,0,0,0-1.88-.26,6.91,6.91,0,0,0-.86.06l-10-41.17Zm3.42-108.81,84,62.28a7.6,7.6,0,0,0-1,3.74,7.39,7.39,0,0,0,.37,2.3l-78.42,36a4.8,4.8,0,0,0-3.61-2.38l-5.53-99.69A7.6,7.6,0,0,0,131.28,213.19Zm160.08-91.4a6.72,6.72,0,0,0,6.4-5.35l59,1c0,.19,0,.38.08.57l-64.45,20.49a7.63,7.63,0,0,0-3.88-4.89Zm-73.1,225.93-46,20.13a7.6,7.6,0,0,0-6.54-3.73,7.39,7.39,0,0,0-3.36.8l-27.23-41.4a4.74,4.74,0,0,0,.88-1l82.23,22a6.77,6.77,0,0,0,0,3.23Zm-81.4-28.42,78.63-36.08a7.62,7.62,0,0,0,5.94,3.61l2.93,51.71v.08a7.65,7.65,0,0,0-5.49,4.06l-82.09-21.91a4.33,4.33,0,0,0,.11-.94A4.77,4.77,0,0,0,136.87,319.31Zm282-141.23L286.25,218.25a7.77,7.77,0,0,0-2-2.47l76-92.68a7.71,7.71,0,0,0,8.86-.53L420.62,172a7.57,7.57,0,0,0-1.71,6ZM228.74,282.73l44.62,16.4,63.85,23.49a7.64,7.64,0,0,0-.43,2l-104,18.63a7.63,7.63,0,0,0-6.5-4.76l-2.92-51.81A7.66,7.66,0,0,0,228.74,282.73Zm150.53-10.35-31.87,45.84a7.42,7.42,0,0,0-5.83-.09l-58.1-90a7.7,7.7,0,0,0,2.27-2.21l90.57,38.4.71.3a7.26,7.26,0,0,0-.31,2.07A7.58,7.58,0,0,0,379.26,272.38ZM281.74,229,339.89,319a7.67,7.67,0,0,0-1.81,1.88l-108.71-40a7.36,7.36,0,0,0,.22-1.72,7.6,7.6,0,0,0-1.67-4.74l46.22-47.3A7.47,7.47,0,0,0,281.74,229Zm131.21,127.4-13.75-6.65-47.36-22.91a7,7,0,0,0,.19-1.57,7.64,7.64,0,0,0-3-6.05l31.76-45.7a7.43,7.43,0,0,0,4.72.8l29.75,79.79A7.55,7.55,0,0,0,412.94,356.36ZM282.61,214.77a7.49,7.49,0,0,0-2.77-.72l6.2-66.11a7.65,7.65,0,0,0,6.65-7.53l64.76-20.58a7.4,7.4,0,0,0,1.39,2Zm58.47,117.32a7.45,7.45,0,0,0,3.29.77,7.61,7.61,0,0,0,6.85-4.26l60.87,29.45a7.48,7.48,0,0,0,.19,5.38l-63,36L285.52,436a7.61,7.61,0,0,0-1.58-1.56Zm78.24,20.77a7.14,7.14,0,0,0-1.75.23l-29.69-79.61a7.65,7.65,0,0,0,3.61-4.15L489.16,290a4.22,4.22,0,0,0,0,.5,7.55,7.55,0,0,0,1.17,4l-66.32,60A7.61,7.61,0,0,0,419.32,352.86Zm-32.61-93.41a7.55,7.55,0,0,0-9,3.44l-91.14-38.65a7.64,7.64,0,0,0,.44-2.55,7,7,0,0,0-.21-1.64l132.6-40.16a7.59,7.59,0,0,0,3.12,3.59Zm-179.6-71.13,64.94,31.45a7.14,7.14,0,0,0-.27,1.91,7.61,7.61,0,0,0,1.14,4l-46.36,47.45a7.6,7.6,0,0,0-4.6-1.58,5.65,5.65,0,0,0-.72,0L203.3,191.35A7.5,7.5,0,0,0,207.12,188.33Zm-90.17,173,14.48-36.76a4.34,4.34,0,0,0,2-.14l26,39.52,1.33,2a7.55,7.55,0,0,0-2.52,4.31l-37.37-2.67A7.67,7.67,0,0,0,116.94,361.32Zm116.41-15.2a7.35,7.35,0,0,0-.07-1l103.6-18.56a7.52,7.52,0,0,0,2.6,4.51l-57.2,102.42a7.37,7.37,0,0,0-5.75,0l-46-81.43A7.66,7.66,0,0,0,233.35,346.12ZM489.57,288l-97.63-20.64a5.41,5.41,0,0,0,0-.63,7.45,7.45,0,0,0-1.4-4.35L443.07,215a7.58,7.58,0,0,0,8.06,1.18l40.93,68.31A7.68,7.68,0,0,0,489.57,288ZM284.12,148l-6.2,66.25a7.61,7.61,0,0,0-5.17,3.79L208,186.62a7.54,7.54,0,0,0,0-5l71.69-35.89A7.55,7.55,0,0,0,284.12,148ZM84.76,317.34l15.69,1.7,10.13,41.86a7.9,7.9,0,0,0-.85.4L81,321.48A9.76,9.76,0,0,0,84.76,317.34ZM440.41,209.18a7.53,7.53,0,0,0,1.4,4.36l-52.48,47.39a7.47,7.47,0,0,0-.9-.65l35.87-76a7.43,7.43,0,0,0,5.92-.65l12.91,19.77A7.57,7.57,0,0,0,440.41,209.18ZM422,170.75l-51.57-49.56a7.49,7.49,0,0,0,1.54-4.55,6.52,6.52,0,0,0-.07-.92l.39-.1a9.75,9.75,0,0,0,13.2,2.62,7.51,7.51,0,0,0,7.27.19l29.49,52.14ZM370.53,110a9.31,9.31,0,0,0,.47,2.9,7.6,7.6,0,0,0-10.56-2.82L333.54,75.73c.14-.14.28-.29.4-.43L374.78,102A9.78,9.78,0,0,0,370.53,110ZM332.07,76.92,359,111.27a7.63,7.63,0,0,0-2.12,4.29l-58.94-1a6.59,6.59,0,0,0-1.32-3.43l27.55-34.24A7.69,7.69,0,0,0,332.07,76.92ZM92.55,249.2a7.58,7.58,0,0,0-1.78-4.88L121.1,214a7.55,7.55,0,0,0,4.15,1.6l5.53,99.71a4.83,4.83,0,0,0-.86.35L89.67,255.17A7.66,7.66,0,0,0,92.55,249.2Zm34.8,70.65s0,.05,0,.08L102,317.17,87.28,256.45a7.3,7.3,0,0,0,.76-.3l40.4,60.67A4.73,4.73,0,0,0,127.34,319.85Zm-41.92-4.46a9.25,9.25,0,0,0,.3-2.25,9.77,9.77,0,0,0-7.36-9.46l6.81-46.82.24,0L100,317Zm35.32,54.11,37.36,2.67a7.66,7.66,0,0,0,7.63,7.24,7.33,7.33,0,0,0,1.36-.14l20.47,65.58a7.78,7.78,0,0,0-1.27.75l-67.18-72.68A7.57,7.57,0,0,0,120.75,369.5Zm52.64,2.26a7.53,7.53,0,0,0-.33-2.16l45.81-20.07a7.6,7.6,0,0,0,3.39,3.42l-30.06,91.37a6.94,6.94,0,0,0-1.46-.16,7.17,7.17,0,0,0-1.35.14L168.9,378.71A7.59,7.59,0,0,0,173.39,371.76Zm50.67-18.2a7.05,7.05,0,0,0,1.65.21,7.37,7.37,0,0,0,3.17-.73l46,81.37a7.61,7.61,0,0,0-3.08,6.13h0l-73.65,9.35a7.59,7.59,0,0,0-4.12-5Zm63,87.15c0-.06,0-.11,0-.17a7.5,7.5,0,0,0-.61-2.93l126.76-72.53A7.57,7.57,0,0,0,418,368l-4.24,84.94a7.61,7.61,0,0,0-6.79,5.57Zm208-248.93a8.83,8.83,0,0,0,.15-1.58,9.77,9.77,0,1,0-19.53,0,9.64,9.64,0,0,0,3.23,7.21l-24,8.36a7.62,7.62,0,0,0-6.85-4.25,7.48,7.48,0,0,0-3.33.8l-13-19.89a7.63,7.63,0,0,0,2.38-5.17l75.37-3.56,7.57,10.4Zm-199.82-82a6.65,6.65,0,0,0-4-1.36,6.72,6.72,0,0,0-6.29,4.44l-31-7.08L322.5,75.46l.17.19Zm-94.52,82.09a5.89,5.89,0,0,0,.74-.05L219.38,272a7.6,7.6,0,0,0-2.93,1.91l-84-62.28a7.57,7.57,0,0,0,1-3.75,7,7,0,0,0-.15-1.38l60.52-19.19A7.65,7.65,0,0,0,200.71,191.84ZM316.9,507.93a7.64,7.64,0,0,0-2.54.44l-30.71-61.48a7.65,7.65,0,0,0,3.13-4.28L406.7,460.38c0,.06,0,.12,0,.18a7.43,7.43,0,0,0,.59,2.89L323,511A7.61,7.61,0,0,0,316.9,507.93ZM493.7,283.5,452.76,215.2a7.54,7.54,0,0,0,2.29-3L544.65,238a9.49,9.49,0,0,0,4.71,4.4,7.73,7.73,0,0,0,1,2.2L502,284.89a7.56,7.56,0,0,0-5.21-2.07A7.47,7.47,0,0,0,493.7,283.5ZM433.91,175.38a7.41,7.41,0,0,0-.68-1.94l51.34-34,23.56,32.44ZM335.38,68a7.6,7.6,0,0,0-13.85-1.44L306.81,55.72a10.24,10.24,0,0,0,1.16-2.8L347.33,65.7ZM193.22,185.55,132.7,204.74a7.58,7.58,0,0,0-6.93-4.46,7.46,7.46,0,0,0-3,.66l-22.9-38.7,8.81-12.13,84.69,32.26a7.13,7.13,0,0,0-.25,1.82A7,7,0,0,0,193.22,185.55Zm-74.28,19-.36.86a7.45,7.45,0,0,0-.46,2.49,7.63,7.63,0,0,0,1.63,4.68L89.38,243a7.58,7.58,0,0,0-2.54-1.22l5.42-69.15,6.36-8.76,22.48,38A7.73,7.73,0,0,0,118.94,204.58Zm-34.1,37a7.66,7.66,0,0,0-4.2,1.31l-.71.57a7.38,7.38,0,0,0-1.24,1.37L58.16,233.72A10.23,10.23,0,0,0,56,222.57l34-46.79ZM55.3,390.88l51.24-19.32a7.64,7.64,0,0,0,4.71,3.8L115,446.24a9.71,9.71,0,0,0-1.72,17.9l-4.18,15.1a9.13,9.13,0,0,0-2-.24,7.72,7.72,0,0,0-1.17.1L53.14,406.48A9.78,9.78,0,0,0,55,405.05,10.25,10.25,0,0,0,55.3,390.88Zm223.53,57.27a7,7,0,0,0,3.13-.39l30.71,61.48a7.57,7.57,0,0,0-2.22,10.41l-52,42.91a7.67,7.67,0,0,0-2.78-1.67ZM421.94,461a4,4,0,0,0,0-.46,7.05,7.05,0,0,0-.22-1.71l120.1-44.13-44,60.55-32.91-6.17h0Zm74.68,16L462.4,524.07a10.16,10.16,0,0,0-5.19-1.42,10.28,10.28,0,0,0-4.25.92l-33-57.9a7.58,7.58,0,0,0,1.58-2.79Zm47.13-70-117-44.64a7.14,7.14,0,0,0,.25-1.81,7.51,7.51,0,0,0-1.41-4.36l66.23-59.88a7.57,7.57,0,0,0,7.21,1.51l43,96.13,2.47,5.53a10.11,10.11,0,0,0,1.71,3.83l.35.77A7.64,7.64,0,0,0,543.75,406.95Zm4.87-182.76L520.18,185l11.51-4a9.36,9.36,0,0,0,6.17,2.33,9.05,9.05,0,0,0,1.63-.16l11.59,40A10.4,10.4,0,0,0,548.62,224.19ZM428.94,169.7a7.66,7.66,0,0,0-5,0l-29.6-52.36a7.55,7.55,0,0,0,1.14-10.16l24.94-17.72,23.91,7.77a10.23,10.23,0,0,0,2.9,8.43,9.85,9.85,0,0,0,3,2.07ZM153.66,102.28,171,104l26.32,73.38a7.64,7.64,0,0,0-3.28,3.22L109.8,148.52l28.65-39.44a10.27,10.27,0,0,0,12.43-1.58A10,10,0,0,0,153.66,102.28Zm-61.1,66.57,1-12.43.61-.07L97.51,162ZM96.13,156a9.67,9.67,0,0,0,6.8-8l3.77,1.44-8,11ZM57.22,235.51,77.76,246.6c-.06.17-.12.34-.17.52l-.2.88,0,.12a7.88,7.88,0,0,0-.1,1.08,7.47,7.47,0,0,0,.58,2.89l.42.82a7.6,7.6,0,0,0,4.91,3.72l-6.8,46.75a7.24,7.24,0,0,0-2.45.22l-21-64.47A9.91,9.91,0,0,0,56,237,9.16,9.16,0,0,0,57.22,235.51Zm16.65,87.13a8.88,8.88,0,0,0,2.1.27,9.69,9.69,0,0,0,3.14-.55l29,40.1a7.79,7.79,0,0,0-1.72,2.33l-.32.86a7.4,7.4,0,0,0-.41,2.36,7.06,7.06,0,0,0,.24,1.78L53.61,389.48a10.39,10.39,0,0,0-1.67-1ZM178.81,540l44.54,17.41-47.17-15.32A7.64,7.64,0,0,0,178.81,540Zm1.72-4.8a7.7,7.7,0,0,0-4.55-7l14.16-68.85a5,5,0,0,0,.59,0,7.46,7.46,0,0,0,2.74-.52l55.3,103a7.52,7.52,0,0,0-2.28,2.59l-66.67-26.09A7.49,7.49,0,0,0,180.53,535.24Zm17.84-83.44h0L272,442.44a7.69,7.69,0,0,0,4.94,5.32L253.78,560.49a6.83,6.83,0,0,0-3.34.49l-55.3-103A7.59,7.59,0,0,0,198.37,451.79ZM476,108.14l-11.5-7.6c.07-.31.12-.62.16-.93Zm-43.81,63.73a7.58,7.58,0,0,0-1.51-1.31l21.45-62.24a10.22,10.22,0,0,0,8.58-1.79l22.78,31.36Zm12.68-76.61L422.51,88,433,80.54a4.81,4.81,0,0,0,4.78.13L447,91.45A9.88,9.88,0,0,0,444.83,95.26ZM394.61,67.52A9.7,9.7,0,0,0,403,62.69l27.87,12.75a4.38,4.38,0,0,0-.12,1,4.76,4.76,0,0,0,.88,2.76l-11.35,8.07-65.1-21.15,30.05-5.79A9.82,9.82,0,0,0,394.61,67.52ZM172.31,102.1l-.33-.93a9.45,9.45,0,0,0,1,.06,9.75,9.75,0,0,0,9-6.1l22.06,10.12Zm-64.45,45.68L103,145.93a9.66,9.66,0,0,0-1.91-5.09L136.75,108ZM293.18,583l-14.53-5.47,14.52,4.72C293.17,582.51,293.17,582.76,293.18,583Zm18.48-61.89a7.6,7.6,0,0,0,12.52-3.29L447,533.46a10.67,10.67,0,0,0,.17,1.4l-63.4,20.6-123.15,11a7.37,7.37,0,0,0-1-2.46ZM324.51,516a3.19,3.19,0,0,0,0-.38,7.45,7.45,0,0,0-.59-2.89l84.25-47.59a7.62,7.62,0,0,0,6.13,3.09,7.47,7.47,0,0,0,4.2-1.29l32.8,57.59a9.45,9.45,0,0,0-1.39,1.14,10.1,10.1,0,0,0-2.87,6Zm182.74-30.63-43.17,39.85,34.72-47.79,6.54,1.22a6.93,6.93,0,0,0-.07.9A9.6,9.6,0,0,0,507.25,485.33Zm37.3-90.38-43.83-98a7.58,7.58,0,0,0,2.69-2.77L529.84,305a9.68,9.68,0,0,0,15.8,6.44l7.84,3.19v72.57a10.06,10.06,0,0,0-8.93,7.79Zm4.71-91.08a9.76,9.76,0,0,0-19.47-1l-25.67-10.45a7.07,7.07,0,0,0,.29-2,7.5,7.5,0,0,0-1.23-4.11L551.52,246a7.69,7.69,0,0,0,2,1.33v65.19l-6.38-2.6A9.69,9.69,0,0,0,549.26,303.87ZM529,170.9l-18.42.87-24.29-33.44,12.16-8.05a5.28,5.28,0,0,0,6.27,1.09L531.45,167A9.38,9.38,0,0,0,529,170.9Zm-413.06,322a9.65,9.65,0,0,0-4.87-13l4.14-15a9.24,9.24,0,0,0,2.68.41,9.71,9.71,0,0,0,9.71-9l56.75-.41a7.57,7.57,0,0,0,4,3.09l-14.13,68.7a7,7,0,0,0-1.27-.12,7.68,7.68,0,0,0-7.32,5.56l-.22,1a6.9,6.9,0,0,0-.11,1.08,7.78,7.78,0,0,0,.3,2l.29.92a7.41,7.41,0,0,0,.33.69l-11.37-3.69a10.2,10.2,0,0,0-15.5-10.11ZM555.5,315.42l6.8,2.77a9.51,9.51,0,0,0-1,4.21,9.7,9.7,0,0,0,5.79,8.9l-11.6,52.27Zm0-2.06V248a5.76,5.76,0,0,0,1.58.1l11.16,65a9.78,9.78,0,0,0-5,3.45Zm14.57-.81-11.12-64.8a7.61,7.61,0,0,0,5.43-7.31,7.31,7.31,0,0,0-.16-1.51l0-.16-1.41-1.27a10.16,10.16,0,0,0-1.94-11.64,10,10,0,0,0-2.92-2l10.7-33.47a11.58,11.58,0,0,0,1.45.23ZM448.59,90.16l-6.3-7.35L450.57,89A10.12,10.12,0,0,0,448.59,90.16ZM305.27,57.73a5,5,0,0,0,.35-.39L320.76,68.5a7.18,7.18,0,0,0-.26,1.86,7.33,7.33,0,0,0,.84,3.41L250.59,105l-.57-.13a9.71,9.71,0,0,0-13.54-3.08l-54-12.3c0-.2-.1-.4-.16-.61L288.6,54.34a10.08,10.08,0,0,0,2.21,3.39A10.24,10.24,0,0,0,305.27,57.73ZM47.49,293.37l20.06,14.81A9.74,9.74,0,0,0,71.94,322L50,387.92a10.45,10.45,0,0,0-2.34-.28h-.2Zm248.63,282a10.1,10.1,0,0,0-2.7,4.83l-32.76-10.64a7.26,7.26,0,0,0,.16-1.2l114.84-10.3-62.95,20.46a9.94,9.94,0,0,0-2.14-3.16,10.15,10.15,0,0,0-7.23-3h0A10.15,10.15,0,0,0,296.12,575.39Zm96.65-20.74,55-17.86a10.44,10.44,0,0,0,.86,1.63L438,546.21a9.71,9.71,0,0,0-7.2-3.24,9.81,9.81,0,0,0-9.73,9.14Zm112.93-77.9L500,475.68l44.18-60.82a7.78,7.78,0,0,0,1.89,1.91L518,470.22a9.53,9.53,0,0,0-2.93-.48A9.72,9.72,0,0,0,505.7,476.74Zm44-58.63a5.61,5.61,0,0,0,.82.07,7.49,7.49,0,0,0,4.26-1.37l.12-.08.06-.13c.91-2.17,1.86-4.53,3-7.43L558,409l0-.14a7.05,7.05,0,0,0-.65-1.78,10,10,0,0,0,4.43-2.57,10.14,10.14,0,0,0,2-11.62l29.82-22.53a11.36,11.36,0,0,0,1.44,1.13L523.67,511.37l-.21-.09Zm40.13-56a11.15,11.15,0,0,0,2.32,6.78l-29.48,22.27a9.77,9.77,0,0,0-.93-1.09,10,10,0,0,0-5.1-2.71l12.32-55.48a9.07,9.07,0,0,0,2.15.28,9.75,9.75,0,0,0,5.05-1.41l17.39,23A11.24,11.24,0,0,0,589.8,362.11ZM556,223.18a10.12,10.12,0,0,0-2.33-.27l-.58,0-11.67-40.31a9.42,9.42,0,1,0-8.42-16.8l-25.22-33.65,53.79,41.26a11.08,11.08,0,0,0-1.8,6,11.34,11.34,0,0,0,6.91,10.37Zm3.61-53.81L507,129a5.36,5.36,0,0,0-5.54-7.79L449.73,59.47Zm-61-46.72-34-25.59a10.06,10.06,0,0,0-2.85-5.86A10.24,10.24,0,0,0,453,88.34l-13.14-9.88a4.7,4.7,0,0,0,.45-2,4.75,4.75,0,0,0-2.95-4.39l1.83-9.78a10.53,10.53,0,0,0,2.36.29A11.09,11.09,0,0,0,448,60.52L499.49,122A5.35,5.35,0,0,0,498.62,122.65Zm-63.23-51a4.75,4.75,0,0,0-3,1.18l-3.64-2.76,3,3.49,0,0L403.85,60.87a9.58,9.58,0,0,0,.53-3.12,8.85,8.85,0,0,0-.21-1.86l26.33-2.53a11.23,11.23,0,0,0,6.76,8.33Zm-5.12-20.32-26.7,2.57a9.68,9.68,0,0,0-9-5.94,9.78,9.78,0,0,0-9.77,9.77,5.44,5.44,0,0,0,.05.72l-33.47,6.45-43.2-14a10.18,10.18,0,0,0-17.41-7.61l-.36.39L268.58,27.53a11.28,11.28,0,0,0,.74-2.75l161,25.51a7.5,7.5,0,0,0-.08,1S430.27,51.33,430.27,51.36ZM288,52.41,181.63,87a9.75,9.75,0,0,0-18.41,4.49,10.12,10.12,0,0,0,.11,1.46L153,96.27a10.19,10.19,0,0,0-19.55,4.8l-24.84,4.46a11.16,11.16,0,0,0-1.27-3L249.25,30.27a11.31,11.31,0,0,0,8.91,4.39,11.19,11.19,0,0,0,9.49-5.31l21.63,15.94A10.29,10.29,0,0,0,288,52.41ZM42.94,238.19a10.43,10.43,0,0,0,2.53,1.24v50L25.34,274.53a11.11,11.11,0,0,0-1.61-13.72ZM47.77,408a10.34,10.34,0,0,0,3.54-.63l52.47,72.2A9.67,9.67,0,0,0,99,483.34l-46.2-33.2a11.22,11.22,0,0,0-7.58-16.4Zm3.91,43.79L98,485.12a9.68,9.68,0,0,0-.72,3.65,9.76,9.76,0,0,0,17.48,6l22.92,31.54a2.69,2.69,0,0,0-.26.22,10.21,10.21,0,0,0,11.87,16.31l16.93,26.34c-.2.19-.39.37-.56.55l-116-116A11.37,11.37,0,0,0,51.68,451.82ZM151.91,541a10,10,0,0,0,2.37-3.85l15.14,4.9a7.2,7.2,0,0,0,2.24.74l74,24a6.08,6.08,0,0,0-.14,1.28c0,.18,0,.37,0,.57l-60.44,7.49a11.28,11.28,0,0,0-11.18-10.11,11.08,11.08,0,0,0-6.11,1.85L151,541.74A8.86,8.86,0,0,0,151.91,541Zm33.26,37.21L246,570.65a7.64,7.64,0,0,0,4,4.39l.91.21c.74.17,1.49.33,2.24.48h.1a7.53,7.53,0,0,0,6.18-3.28l34.13,12.84a9.81,9.81,0,0,0,2.55,4.55A10.18,10.18,0,0,0,309,591.11L345.77,605c-.05.17-.1.35-.15.53L184.85,580A11.67,11.67,0,0,0,185.17,578.19Zm128.14,2.28,71.36-23.19L421.12,554a9.84,9.84,0,0,0,1.2,3.6l-58,42.14a11.2,11.2,0,0,0-17.4,2.48l-34-16.17A10.42,10.42,0,0,0,313.31,580.47Zm110.22-21.23a9.68,9.68,0,0,0,7.24,3.27,9.78,9.78,0,0,0,9.76-9.77,9.64,9.64,0,0,0-1.35-4.92L449.85,540l.09.09a10.15,10.15,0,0,0,7.23,3h0a10.18,10.18,0,0,0,10.16-11l41.51-6.41a11.35,11.35,0,0,0,1,2.11L365.71,601.26ZM524.81,479.5a9.8,9.8,0,0,0-5.08-8.53l27.86-52.9-26.07,92.67a10.57,10.57,0,0,0-2.07-.21h-.16L517,489A9.7,9.7,0,0,0,524.81,479.5Zm56-157.1a9.76,9.76,0,0,0-5.39-8.73l.4-.71v-.49c0-.24,0-.48,0-.73s0-.47,0-.71v-1.9l-2.2,3.87a10,10,0,0,0-1.55-.3V190.65c.31,0,.6-.06.89-.11L598.4,351.15a11.31,11.31,0,0,0-3.27,1.42L577.7,329.5A9.72,9.72,0,0,0,580.83,322.4Z"/><circle class="cls-1" cx="162.6" cy="551.31" r="39.88"/><path class="cls-2" d="M172,530.86H153.18a4.47,4.47,0,0,0-4.51,4.44v32a4.47,4.47,0,0,0,4.51,4.44H172a4.47,4.47,0,0,0,4.51-4.44v-32A4.47,4.47,0,0,0,172,530.86Zm-9.42,36.89a2.48,2.48,0,1,1,2.52-2.48A2.5,2.5,0,0,1,162.6,567.75Zm10-7.41H152.56V534.93h20.08Z"/><circle class="cls-1" cx="284.66" cy="444.74" r="39.88"/><path class="cls-2" d="M274.86,455.2l.13-.1.08-.06a13.75,13.75,0,0,1,10.12-4.19h.33A13.75,13.75,0,0,1,295.63,455l.08.06.13.1a1.73,1.73,0,0,1,.43,2.48l-1.89,1.91a2,2,0,0,1-2.67-.22l-.06-.06h0l-.07-.07-.22-.25a7.69,7.69,0,0,0-5.85-2.45v0l-.13,0h-.07l-.13,0v0a7.7,7.7,0,0,0-5.85,2.45l-.22.25-.06.07h0l-.06.06a2,2,0,0,1-2.67.22l-1.88-1.91A1.73,1.73,0,0,1,274.86,455.2Z"/><path class="cls-2" d="M257,433.91l.18-.18a2.11,2.11,0,0,1,.25-.19,43.43,43.43,0,0,1,55.91,0,2,2,0,0,1,.25.19l.18.18a1.8,1.8,0,0,1,0,2.52l-2.26,2.27a2.11,2.11,0,0,1-2.6.2h0l0,0-.23-.17a1.86,1.86,0,0,1-.27-.28,32.85,32.85,0,0,0-22.85-8.26h-.33a32.84,32.84,0,0,0-22.85,8.26,2,2,0,0,1-.27.28l-.23.17,0,0h0a2.11,2.11,0,0,1-2.6-.2l-2.25-2.27A1.8,1.8,0,0,1,257,433.91Z"/><path class="cls-2" d="M266.73,444.79l.27-.2a26.1,26.1,0,0,1,18.19-7.16h.33a26.09,26.09,0,0,1,18.18,7.16l.27.2.1.1a1.76,1.76,0,0,1,.2,2.51l-2.1,2.12a2,2,0,0,1-2.61,0l-.18-.14A2.34,2.34,0,0,1,299,449a20.39,20.39,0,0,0-27.26,0,2.35,2.35,0,0,1-.39.44l-.18.14a2,2,0,0,1-2.61,0l-2.1-2.12a1.76,1.76,0,0,1,.2-2.51Z"/><ellipse class="cls-2" cx="285.35" cy="467.59" rx="4.66" ry="4.59"/><circle class="cls-1" cx="39.88" cy="422.99" r="39.88"/><path class="cls-2" d="M20.14,434.16s.3.76,1.74.21l3.94-1a2.62,2.62,0,0,1,2.36.72s1.7,1.13,1.57,2.07l-1.1,5.48a1.25,1.25,0,0,0,.71,1.52l4.41,1.65s1.23.12,1.55-.87l1.92-3.46A2.67,2.67,0,0,1,40,439s2.08-.18,2.81.92l2.52,4.13s.45,1,1.81.43L51,442.85s1.1-.71.76-1.67L50.54,437a2.2,2.2,0,0,1,.6-2.38s1.22-2,2.9-1.58l4.68,1.1s1,.42,1.81-.93l1.51-3.7a1.52,1.52,0,0,0-.85-1.9l-3.87-2.21s-1.08-.48-1-2.42c0,0-.29-2.17,1.09-2.91l3.8-2.29a1.39,1.39,0,0,0,.71-1.84l-1.62-3.6a1.63,1.63,0,0,0-2.06-1l-4.41,1.39a3.8,3.8,0,0,1-2.46-1s-1.57-1.49-1.09-2.77l1-4.34s.26-1.27-.71-1.73L46,401.2s-1-.06-1.29.69l-2.56,4.52a3.67,3.67,0,0,1-2.85.66,5.46,5.46,0,0,1-2.12-.57s-2.6-4.32-2.72-4.54a1.18,1.18,0,0,0-1.49-.59l-4.18,1.73s-.84.52-.63,1.26l1.48,5.5a4.11,4.11,0,0,1-1.28,2.08s-1.7,1.24-2.53,1.09l-4.56-1.09a1.48,1.48,0,0,0-1.84.66l-1.71,4.14a1.15,1.15,0,0,0,.58,1.39l4.48,2.53s1.43.65,1,3.11A3.19,3.19,0,0,1,22,426.57c-1.82,1-3.38,2-3.38,2a1.17,1.17,0,0,0-.57,1.54C18.53,431.14,20.14,434.16,20.14,434.16ZM32,426.31a8.52,8.52,0,0,1,4.59-11.24A8.74,8.74,0,0,1,48,419.58a8.52,8.52,0,0,1-4.59,11.24A8.74,8.74,0,0,1,32,426.31Z"/><circle class="cls-1" cx="134.66" cy="350.71" r="39.88"/><path class="cls-2" d="M157.23,330.19h-41a3.56,3.56,0,0,0-3.58,3.53v27.44a3.56,3.56,0,0,0,3.58,3.52h16.05V368H118a2,2,0,0,0,0,3.92h38.1a2,2,0,0,0,0-3.92H143v-3.33h14.23a3.55,3.55,0,0,0,3.58-3.52V333.71A3.55,3.55,0,0,0,157.23,330.19Zm-.74,26.4a3.13,3.13,0,0,1-3.12,3.12H120.11a3.13,3.13,0,0,1-3.12-3.12v-18.3a3.13,3.13,0,0,1,3.12-3.12h33.27a3.13,3.13,0,0,1,3.12,3.12Z"/><circle class="cls-1" cx="552.49" cy="238.72" r="39.88"/><path class="cls-2" d="M551.22,259.27V242.71a4,4,0,0,0-7.95,0v16.57Z"/><path class="cls-2" d="M561.71,259.27V232.18a4,4,0,0,0-7.95,0v27.09Z"/><path class="cls-2" d="M572.21,259.27V222.09a4,4,0,0,0-8,0v37.19Z"/><path class="cls-2" d="M540.72,259.27v-6.4a4,4,0,0,0-8,0v6.4Z"/><circle class="cls-1" cx="421.61" cy="362.93" r="39.88"/><path class="cls-2" d="M438,359.66a13.09,13.09,0,0,0-24.5-6.4,10.51,10.51,0,0,0-1.67-.14,9.81,9.81,0,0,0-9.4,7,9.81,9.81,0,0,0,2.88,19.2h32.65a9.81,9.81,0,1,0,0-19.63ZM421.61,376l-9.81-13.09h6.54v-9.81h6.54v9.81h6.54Z"/><circle class="cls-1" cx="441.44" cy="543.58" r="39.88"/><path class="cls-2" d="M454.1,551.18a7.56,7.56,0,0,0-4.62,1.58l-13.22-7.93a7.05,7.05,0,0,0,0-2.49l13.22-7.93a7.69,7.69,0,1,0-2.87-4.78l-13.22,7.93a7.6,7.6,0,1,0,0,12l13.22,7.93a7.59,7.59,0,1,0,7.49-6.35Z"/><circle class="cls-1" cx="278.89" cy="224.28" r="39.88"/><path class="cls-2" d="M254.48,219.07a15.1,15.1,0,0,0,1.35,3.21l-1.63,2.06a1.69,1.69,0,0,0,.13,2.24l2.81,2.81a1.68,1.68,0,0,0,2.24.13l2-1.62a14.84,14.84,0,0,0,3.34,1.41l.31,2.63a1.68,1.68,0,0,0,1.67,1.49h4a1.68,1.68,0,0,0,1.67-1.49l.29-2.54a15,15,0,0,0,3.57-1.44l2,1.56a1.69,1.69,0,0,0,2.24-.13l2.81-2.81a1.68,1.68,0,0,0,.13-2.24l-1.54-2a14.67,14.67,0,0,0,1.47-3.51l2.37-.27a1.68,1.68,0,0,0,1.49-1.67v-4a1.68,1.68,0,0,0-1.49-1.67l-2.34-.27a14.76,14.76,0,0,0-1.41-3.47l1.44-1.82a1.69,1.69,0,0,0-.13-2.24l-2.8-2.8a1.68,1.68,0,0,0-2.24-.13l-1.76,1.4a14.81,14.81,0,0,0-3.65-1.53l-.27-2.28a1.68,1.68,0,0,0-1.67-1.49h-4a1.68,1.68,0,0,0-1.67,1.49l-.27,2.28A14.75,14.75,0,0,0,261.2,202l-1.83-1.45a1.69,1.69,0,0,0-2.24.13l-2.81,2.81a1.68,1.68,0,0,0-.13,2.24l1.53,1.94a14.48,14.48,0,0,0-1.38,3.51l-2.45.28a1.68,1.68,0,0,0-1.49,1.67v4a1.68,1.68,0,0,0,1.49,1.67Zm14.4-10.75a6.57,6.57,0,1,1-6.57,6.57A6.58,6.58,0,0,1,268.88,208.32Z"/><path class="cls-2" d="M308.16,220l-2.1-1.77a1.66,1.66,0,0,0-2.21.06l-1.16,1.09a12,12,0,0,0-3.09-1l-.33-1.6a1.67,1.67,0,0,0-1.77-1.33l-2.74.23a1.67,1.67,0,0,0-1.52,1.6L293.2,219a12,12,0,0,0-2.95,1.55l-1.38-.92a1.66,1.66,0,0,0-2.19.31L284.91,222a1.66,1.66,0,0,0,.06,2.21l1.21,1.29a12.4,12.4,0,0,0-.89,3l-1.73.35a1.67,1.67,0,0,0-1.33,1.77l.23,2.74a1.67,1.67,0,0,0,1.6,1.52l1.87.06a12.22,12.22,0,0,0,1.32,2.53l-1,1.58a1.66,1.66,0,0,0,.31,2.19l2.1,1.77a1.66,1.66,0,0,0,2.21-.06l1.37-1.28a12,12,0,0,0,2.82.92l.38,1.88a1.67,1.67,0,0,0,1.77,1.33l2.74-.23a1.67,1.67,0,0,0,1.52-1.6l.06-1.84a12.3,12.3,0,0,0,2.82-1.42l1.51,1a1.66,1.66,0,0,0,2.19-.31l1.77-2.1a1.66,1.66,0,0,0-.06-2.21l-1.22-1.29a12,12,0,0,0,1-3l1.66-.34a1.67,1.67,0,0,0,1.33-1.77l-.23-2.74a1.67,1.67,0,0,0-1.6-1.52l-1.67-.05a12.09,12.09,0,0,0-1.39-2.74l.91-1.37A1.65,1.65,0,0,0,308.16,220Zm-10.31,15.82a5.38,5.38,0,1,1,4.91-5.81A5.38,5.38,0,0,1,297.85,235.86Z"/><path class="cls-2" d="M264.05,243.22a1.66,1.66,0,0,0-1.49,1.64l0,1.68a1.66,1.66,0,0,0,1.45,1.67l1.24.16a9.61,9.61,0,0,0,.88,2.15l-.8,1a1.66,1.66,0,0,0,.1,2.21l1.18,1.2a1.66,1.66,0,0,0,2.21.15l1-.77a9.72,9.72,0,0,0,2.21,1l.13,1.28a1.66,1.66,0,0,0,1.64,1.49l1.68,0a1.66,1.66,0,0,0,1.67-1.45l.15-1.21a10,10,0,0,0,2.4-.93l.93.75a1.66,1.66,0,0,0,2.21-.1l1.2-1.18a1.66,1.66,0,0,0,.15-2.21l-.71-.93a9.65,9.65,0,0,0,1-2.33l1.11-.11a1.66,1.66,0,0,0,1.49-1.64l0-1.68a1.66,1.66,0,0,0-1.45-1.67l-1.08-.14a10,10,0,0,0-.91-2.33l.67-.83a1.66,1.66,0,0,0-.1-2.21l-1.18-1.2a1.66,1.66,0,0,0-2.21-.15l-.81.62a9.79,9.79,0,0,0-2.42-1.05l-.11-1a1.66,1.66,0,0,0-1.64-1.49l-1.68,0A1.66,1.66,0,0,0,272.5,235l-.13,1a10.05,10.05,0,0,0-2.51,1l-.83-.68a1.66,1.66,0,0,0-2.21.1l-1.21,1.19a1.66,1.66,0,0,0-.15,2.21l.71.92a9.74,9.74,0,0,0-1,2.33Zm10.87-1.9a4.38,4.38,0,1,1-4.43,4.33A4.38,4.38,0,0,1,274.92,241.32Z"/><circle class="cls-1" cx="551.01" cy="401.88" r="39.88"/><path class="cls-2" d="M551,378a23.84,23.84,0,1,0,23.84,23.84A23.84,23.84,0,0,0,551,378Zm0,41.71a17.88,17.88,0,1,1,17.88-17.88A17.9,17.9,0,0,1,551,419.76Zm14.9-17.88a3,3,0,0,1-3,3H551a3,3,0,0,1-3-3V390a3,3,0,1,1,6,0v8.94h8.94A3,3,0,0,1,565.91,401.88Z"/><circle class="cls-1" cx="375.73" cy="123.52" r="39.88"/><path class="cls-2" d="M389.16,109.79a4.74,4.74,0,1,0,4.75,4.75A4.74,4.74,0,0,0,389.16,109.79Zm-26.86,0a4.74,4.74,0,1,0,4.74,4.75A4.75,4.75,0,0,0,362.3,109.79Zm13.43-9.48a7,7,0,1,0,7,7A7,7,0,0,0,375.73,100.31Zm21,42h-8.28V127.21a12.52,12.52,0,0,0-1.44-5.75,7.51,7.51,0,0,1,2.14-.34,7.59,7.59,0,0,1,7.59,7.58ZM363,127.21v15.14h-8.27V128.69a7.59,7.59,0,0,1,7.59-7.58,7.42,7.42,0,0,1,2.13.34A12.57,12.57,0,0,0,363,127.21Zm1.74,19.52h22V127.21a11,11,0,1,0-22,0Z"/><circle class="cls-1" cx="90.23" cy="135.38" r="39.88"/><path class="cls-2" d="M113.61,128.56v-1.62a5.58,5.58,0,0,0-5.61-5.54H68.14a5.58,5.58,0,0,0-5.61,5.54v16.88a5.58,5.58,0,0,0,5.61,5.54H108a5.58,5.58,0,0,0,5.61-5.54v-2.19a5.56,5.56,0,0,0,4.3-5.37v-2.33A5.55,5.55,0,0,0,113.61,128.56Zm-7.09,17.54H69.43c-2.19.13-3.39-.9-3.27-3.45V128.44c0-2.36.86-3.5,3.27-3.46h37.09c2.52,0,3.29,1.15,3.27,3.46v14.21C110,145.25,108.71,146,106.52,146.1Z"/><rect class="cls-2" x="76.81" y="126.61" width="5.53" height="17.87"/><rect class="cls-2" x="85.1" y="126.61" width="5.53" height="17.87"/><path class="cls-2" d="M74,126.61H71.23c-2.19,0-2.94.93-3,2.92v12c-.12,2.16,1,3,3,2.92H74Z"/><circle class="cls-1" cx="272.92" cy="39.88" r="39.88"/><path class="cls-2" d="M293.63,54.87V28.06a1.5,1.5,0,0,0-1.5-1.49H273.24c-.58,0-1-1.09-1-1.5V24.9a1.6,1.6,0,0,0-1.59-1.59H260.54A1.59,1.59,0,0,0,259,24.9v.17c0,.42-.46,1.51-1.06,1.51h0a1.49,1.49,0,0,0-1.47,1.49v7.76h-3.22s-1.42-.08-.92,1.62l3.39,17.42a1.5,1.5,0,0,0,1.49,1.59H292.9C293.77,56.45,293.63,54.87,293.63,54.87Zm-1.83-16.8,0,17.5L288.4,36.81a1.43,1.43,0,0,0-1.45-1H258.28v-6H291.8v8.17Z"/></g></g></svg>
